<svg width="240" height="79" viewBox="0 0 240 79" fill="none" xmlns="http://www.w3.org/2000/svg">
<path d="M129.673 65.0923C126.942 62.7425 124.307 60.234 121.766 57.5667C119.29 54.8359 116.972 52.0415 114.812 49.1837C112.717 46.3259 110.78 43.4363 109.001 40.515C107.287 37.5302 105.826 34.6088 104.619 31.751C102.46 34.1008 100.301 36.4823 98.1417 38.8956C96.046 41.2453 94.1725 43.6268 92.5214 46.0401C90.8702 48.3899 89.5365 50.7714 88.5204 53.1847C87.4408 55.5344 86.901 57.8842 86.901 60.234C86.901 63.0283 87.3773 65.4415 88.3299 67.4738C89.219 69.4425 90.4256 71.0619 91.9498 72.3321C93.474 73.6022 95.2204 74.5231 97.1891 75.0946C99.1578 75.6662 101.19 75.952 103.286 75.952C107.477 75.952 111.923 74.9676 116.622 72.9989C121.322 71.0302 125.672 68.3946 129.673 65.0923ZM117.861 8.60267C117.861 6.37992 117.353 4.79224 116.337 3.83963C115.384 2.82352 114.336 2.31546 113.193 2.31546C112.24 2.31546 111.224 2.633 110.145 3.26807C109.128 3.90314 108.176 4.82399 107.287 6.03063C106.461 7.17376 105.763 8.57091 105.191 10.2221C104.619 11.8733 104.334 13.6832 104.334 15.652C104.334 19.2719 105.001 23.114 106.334 27.1785C107.922 25.5273 109.414 23.9079 110.811 22.3202C112.209 20.7325 113.415 19.1766 114.431 17.6524C115.511 16.0648 116.337 14.5406 116.908 13.0799C117.543 11.5557 117.861 10.0633 117.861 8.60267ZM154.536 78.143C154.536 78.3335 154.409 78.524 154.155 78.7145C153.901 78.9051 153.52 79.0003 153.012 79.0003C149.201 77.7937 145.455 76.1107 141.771 73.9515C138.088 71.7288 134.5 69.1567 131.007 66.2354C128.593 68.0771 126.085 69.76 123.481 71.2842C120.877 72.8084 118.21 74.1103 115.479 75.1899C112.812 76.2695 110.113 77.0951 107.382 77.6667C104.715 78.2382 102.143 78.524 99.6659 78.524C97.2526 78.524 94.9664 78.1747 92.8071 77.4761C90.6479 76.8411 88.7744 75.8567 87.1868 74.5231C85.5991 73.1259 84.3607 71.4112 83.4716 69.379C82.519 67.3468 82.0427 64.9652 82.0427 62.2344C82.0427 59.3131 82.7095 56.4553 84.0432 53.661C85.3768 50.8031 87.0915 48.0088 89.1872 45.278C91.283 42.5472 93.601 39.8799 96.1413 37.2761C98.7451 34.6723 101.285 32.1321 103.762 29.6553C101.92 24.7017 101 20.2245 101 16.2235C101 13.8738 101.412 11.7145 102.238 9.74579C103.127 7.77707 104.238 6.09414 105.572 4.69698C106.906 3.29982 108.366 2.2202 109.954 1.45812C111.605 0.632523 113.161 0.219727 114.622 0.219727C116.337 0.219727 117.892 0.791291 119.29 1.93442C120.687 3.01404 121.385 4.82399 121.385 7.36428C121.385 8.95195 120.973 10.6031 120.147 12.3178C119.385 14.0325 118.337 15.8107 117.003 17.6524C115.733 19.4306 114.209 21.3041 112.431 23.2728C110.716 25.178 108.906 27.1467 107.001 29.179C109.097 34.9581 112.209 40.8325 116.337 46.8022C120.528 52.7084 125.609 58.2335 131.578 63.3776C134.817 60.4562 137.421 57.2491 139.39 53.7562C141.358 50.2633 142.343 46.6117 142.343 42.8013C142.343 41.5311 142.152 40.261 141.771 38.9908C141.454 37.6572 140.787 36.26 139.771 34.7994C139.771 34.6723 139.961 34.5453 140.342 34.4183C140.723 34.2278 141.073 34.1325 141.39 34.1325C142.279 34.1325 142.978 34.4501 143.486 35.0851C144.057 35.6567 144.47 36.3553 144.724 37.1809C145.042 38.0065 145.232 38.8638 145.296 39.7529C145.423 40.5785 145.486 41.2453 145.486 41.7534C145.486 45.9449 144.311 50.0093 141.962 53.9468C139.675 57.8207 136.691 61.3771 133.007 64.616C139.167 69.887 146.121 74.1738 153.869 77.4761C154.314 77.7302 154.536 77.9524 154.536 78.143Z" fill="#FFA55C"/>
<path d="M18.2413 44.1278C18.2413 42.1438 18.1133 40.4958 17.8573 39.1838C17.6333 37.8718 17.3133 37.2158 16.8973 37.2158C16.6413 37.2158 16.4013 37.4078 16.1773 37.7918C15.9533 38.1438 15.7613 38.6558 15.6013 39.3278C15.4733 39.9678 15.3613 40.7358 15.2653 41.6318C15.2013 42.4958 15.1693 43.4398 15.1693 44.4638C15.1693 46.2878 15.2973 48.2558 15.5533 50.3678C15.8093 52.4478 16.2573 54.4638 16.8973 56.4158C17.3453 54.3678 17.6813 52.2718 17.9053 50.1278C18.1293 47.9518 18.2413 45.9518 18.2413 44.1278ZM38.3533 22.3358C38.3533 22.4958 38.2893 22.6238 38.1613 22.7198C38.0333 22.8158 37.8733 22.9278 37.6813 23.0558C36.7213 23.6318 35.9373 24.4318 35.3293 25.4558C34.7213 26.4798 34.2253 27.5998 33.8413 28.8158C33.4893 30.0318 33.2493 31.2798 33.1213 32.5598C32.9933 33.8078 32.9293 34.9598 32.9293 36.0158C32.9293 36.7518 32.9613 37.6638 33.0253 38.7518C33.1213 39.8078 33.2173 40.9758 33.3133 42.2558C33.4413 43.5358 33.5373 44.8958 33.6013 46.3358C33.6973 47.7438 33.7453 49.1838 33.7453 50.6558C33.7453 52.7358 33.6173 54.7518 33.3613 56.7038C33.1373 58.6558 32.6733 60.3998 31.9693 61.9358C31.2973 63.4718 30.3533 64.7038 29.1373 65.6318C27.9213 66.5598 26.3373 67.0238 24.3853 67.0238C23.4893 67.0238 22.6413 66.8478 21.8413 66.4958C21.0733 66.1758 20.3533 65.7118 19.6813 65.1038C19.0413 64.4958 18.4493 63.7918 17.9053 62.9918C17.3933 62.1918 16.9293 61.3118 16.5133 60.3518C16.0973 61.4718 15.6013 62.5118 15.0253 63.4718C14.4813 64.4318 13.8733 65.2638 13.2013 65.9678C12.5293 66.6718 11.7933 67.2158 10.9933 67.5998C10.1933 67.9838 9.34534 68.1758 8.44934 68.1758C7.07333 68.1758 5.90533 67.8238 4.94533 67.1198C4.01733 66.4158 3.24933 65.4878 2.64133 64.3358C2.03333 63.2158 1.55333 61.9358 1.20133 60.4958C0.881334 59.0238 0.641334 57.5358 0.481334 56.0318C0.321334 54.4958 0.209334 53.0078 0.145334 51.5678C0.113334 50.0958 0.081334 48.7998 0.049334 47.6798C-0.014666 45.6638 0.017334 43.7598 0.145334 41.9678C0.305334 40.1438 0.481334 38.5118 0.673334 37.0718C0.865334 35.5998 1.05733 34.3358 1.24933 33.2798C1.44133 32.2238 1.56933 31.4398 1.63333 30.9278C1.66533 30.7358 1.85733 30.6078 2.20933 30.5438C2.59333 30.4798 2.92933 30.4478 3.21733 30.4478C3.44133 30.4478 3.63333 30.4798 3.79333 30.5438C3.95333 30.5758 4.03333 30.6718 4.03333 30.8318C4.03333 31.0238 3.95333 31.3598 3.79333 31.8398C3.63333 32.2878 3.39333 33.1518 3.07333 34.4318C2.94533 35.0078 2.80133 35.8398 2.64133 36.9278C2.51333 37.9838 2.38533 39.1838 2.25733 40.5278C2.16133 41.8718 2.08133 43.3118 2.01733 44.8478C1.95333 46.3518 1.92133 47.8238 1.92133 49.2638C1.92133 50.3838 1.96933 51.6158 2.06533 52.9598C2.16133 54.2718 2.32133 55.5838 2.54533 56.8958C2.76933 58.1758 3.07333 59.4238 3.45733 60.6398C3.84133 61.8558 4.30533 62.9278 4.84933 63.8558C5.42533 64.7838 6.09733 65.5198 6.86533 66.0638C7.63333 66.6398 8.52934 66.9278 9.55334 66.9278C10.3213 66.9278 11.0253 66.7358 11.6653 66.3518C12.3053 65.9678 12.8973 65.4238 13.4413 64.7198C13.9853 64.0478 14.4653 63.2478 14.8813 62.3198C15.3293 61.3918 15.7293 60.3838 16.0813 59.2958C15.3453 57.2798 14.8013 55.1358 14.4493 52.8638C14.0973 50.5918 13.9213 48.4958 13.9213 46.5758C13.9213 45.1678 13.9693 43.7758 14.0653 42.3998C14.1933 41.0238 14.3693 39.7918 14.5933 38.7038C14.8173 37.6158 15.1053 36.7358 15.4573 36.0638C15.8093 35.3918 16.2253 35.0558 16.7053 35.0558C17.0893 35.0558 17.4253 35.2958 17.7133 35.7758C18.0333 36.2558 18.2893 36.9118 18.4813 37.7438C18.7053 38.5758 18.8653 39.5678 18.9613 40.7198C19.0893 41.8398 19.1533 43.0558 19.1533 44.3678C19.1533 46.4798 19.0093 48.7038 18.7213 51.0398C18.4333 53.3438 17.9853 55.5998 17.3773 57.8078C17.7933 58.9278 18.2733 59.9678 18.8173 60.9278C19.3613 61.8558 19.9693 62.6718 20.6413 63.3758C21.3453 64.0798 22.1133 64.6238 22.9453 65.0078C23.8093 65.4238 24.7533 65.6318 25.7773 65.6318C27.1853 65.6318 28.3373 65.2798 29.2333 64.5758C30.1293 63.9038 30.8333 62.9758 31.3453 61.7918C31.8573 60.5758 32.2093 59.1838 32.4013 57.6158C32.5933 56.0158 32.6893 54.3038 32.6893 52.4798C32.6893 50.8478 32.6253 49.1678 32.4973 47.4398C32.4013 45.7118 32.2893 43.9998 32.1613 42.3038C32.0333 40.5758 31.9053 38.9118 31.7773 37.3118C31.6813 35.6798 31.6333 34.1758 31.6333 32.7998C31.6333 31.8078 31.7773 30.6558 32.0653 29.3438C32.3853 28.0318 32.8013 26.7998 33.3133 25.6478C33.8573 24.4638 34.4653 23.4718 35.1373 22.6718C35.8413 21.8398 36.5773 21.4238 37.3453 21.4238C37.5693 21.4238 37.7933 21.5358 38.0173 21.7598C38.2413 21.9518 38.3533 22.1438 38.3533 22.3358Z" fill="#FFF9F4"/>
<path d="M53.341 54.2078C53.341 53.7278 53.261 53.3438 53.101 53.0558C52.941 52.7358 52.685 52.5758 52.333 52.5758C51.789 52.5758 51.373 52.8478 51.085 53.3918C50.797 53.9038 50.669 54.5598 50.701 55.3598C50.797 57.0558 51.101 58.4798 51.613 59.6318C52.157 58.8958 52.573 58.0638 52.861 57.1358C53.181 56.2078 53.341 55.2318 53.341 54.2078ZM66.301 54.1598C66.077 54.6398 65.837 55.1358 65.581 55.6478C65.325 56.1278 65.037 56.6078 64.717 57.0878C63.085 59.5198 61.437 61.3278 59.773 62.5118C58.109 63.6958 56.557 64.2878 55.117 64.2878C53.293 64.2878 51.901 63.4238 50.941 61.6958C49.821 62.8158 48.557 63.6638 47.149 64.2398C45.773 64.8158 44.413 65.1038 43.069 65.1038C42.269 65.1038 41.501 64.9918 40.765 64.7678C40.061 64.5438 39.453 64.2078 38.941 63.7598C38.397 63.2798 37.965 62.6878 37.645 61.9838C37.325 61.2478 37.165 60.3998 37.165 59.4398C37.165 58.2878 37.437 57.1198 37.981 55.9358C38.493 54.7198 39.213 53.6318 40.141 52.6718C41.101 51.6798 42.221 50.8638 43.501 50.2238C44.781 49.5838 46.173 49.2638 47.677 49.2638C48.893 49.2638 49.837 49.4398 50.509 49.7918C51.181 50.1118 51.517 50.4158 51.517 50.7038C51.517 50.8318 51.453 50.9278 51.325 50.9918C51.197 51.0558 51.085 51.0878 50.989 51.0878C50.957 51.0558 50.925 51.0398 50.893 51.0398H50.845C50.461 50.6878 50.029 50.4158 49.549 50.2238C49.069 49.9998 48.365 49.8878 47.437 49.8878C46.189 49.8878 45.053 50.1598 44.029 50.7038C43.037 51.2158 42.189 51.9038 41.485 52.7678C40.781 53.5998 40.237 54.5278 39.853 55.5518C39.469 56.5758 39.277 57.5838 39.277 58.5758C39.277 60.4958 39.725 61.8878 40.621 62.7518C41.517 63.6158 42.637 64.0478 43.981 64.0478C45.069 64.0478 46.205 63.7758 47.389 63.2318C48.573 62.6878 49.629 61.9198 50.557 60.9278C50.045 59.7758 49.789 58.2718 49.789 56.4158C49.789 55.1998 50.013 54.1438 50.461 53.2478C50.909 52.3518 51.549 51.9038 52.381 51.9038C53.533 51.9038 54.109 52.5758 54.109 53.9198C54.109 55.2638 53.917 56.4798 53.533 57.5678C53.149 58.6238 52.637 59.5838 51.997 60.4478C52.893 62.1118 54.141 62.9438 55.741 62.9438C56.957 62.9438 58.253 62.4318 59.629 61.4078C61.037 60.3838 62.413 58.8958 63.757 56.9438C64.077 56.4638 64.365 55.9678 64.621 55.4558C64.877 54.9438 65.133 54.4318 65.389 53.9198L66.301 54.1598Z" fill="#FFF9F4"/>
<path d="M72.9681 32.7038C72.9681 30.8798 72.6641 29.4238 72.0561 28.3358C71.4801 27.2158 70.5041 26.6558 69.1281 26.6558C68.6481 26.6558 68.2001 26.8158 67.7841 27.1358C67.4001 27.4238 67.0641 27.8238 66.7761 28.3358C66.4881 28.8478 66.2641 29.4398 66.1041 30.1118C65.9441 30.7838 65.8641 31.5038 65.8641 32.2718C65.8641 34.3838 65.8801 36.3038 65.9121 38.0318C65.9441 39.7598 65.9761 41.3918 66.0081 42.9278C66.0721 44.4638 66.1361 45.9518 66.2001 47.3918C66.2641 48.8318 66.3281 50.3038 66.3921 51.8078C67.3201 50.5598 68.1841 49.1358 68.9841 47.5358C69.7841 45.9038 70.4721 44.2398 71.0481 42.5438C71.6561 40.8158 72.1201 39.1038 72.4401 37.4078C72.7921 35.7118 72.9681 34.1438 72.9681 32.7038ZM90.3441 54.1598C90.1201 54.6398 89.8801 55.1358 89.6241 55.6478C89.4001 56.1598 89.1121 56.6398 88.7601 57.0878C87.0001 59.5838 85.0001 61.5518 82.7601 62.9918C80.5201 64.3998 78.2961 65.1038 76.0881 65.1038C74.7121 65.1038 73.4001 64.7838 72.1521 64.1438C70.9041 63.5358 69.8001 62.5438 68.8401 61.1678C68.7121 61.0078 68.6481 60.8638 68.6481 60.7358C68.6481 60.4478 68.8401 60.3038 69.2241 60.3038C69.2561 60.3038 69.3681 60.3358 69.5601 60.3998C69.8161 60.3998 70.1041 60.4958 70.4241 60.6878C70.7761 60.8478 71.2721 60.9278 71.9121 60.9278C72.9041 60.9278 73.8321 60.7518 74.6961 60.3998C75.5601 60.0478 76.2961 59.5998 76.9041 59.0558C77.5441 58.4798 78.0401 57.8398 78.3921 57.1358C78.7441 56.3998 78.9201 55.6478 78.9201 54.8798C78.9201 53.9198 78.6641 53.0878 78.1521 52.3838C77.6721 51.6798 76.8401 51.3278 75.6561 51.3278C74.4401 51.3278 73.3201 51.7598 72.2961 52.6238C71.2721 53.4558 70.3441 54.4798 69.5121 55.6958C68.7121 56.8798 68.0241 58.1438 67.4481 59.4878C66.8721 60.7998 66.4401 61.9518 66.1521 62.9438C65.9921 63.4878 65.8481 63.8238 65.7201 63.9518C65.5921 64.0798 65.4481 64.1438 65.2881 64.1438C64.9361 64.1438 64.7761 63.8078 64.8081 63.1358C64.8081 62.8478 64.8241 62.4958 64.8561 62.0798C64.8881 61.6638 64.9201 61.2158 64.9521 60.7358C64.9521 60.2558 64.9681 59.7758 65.0001 59.2958C65.0321 58.7838 65.0481 58.3198 65.0481 57.9038C65.0481 56.4638 65.0161 54.8158 64.9521 52.9598C64.8881 51.0718 64.8081 49.1358 64.7121 47.1518C64.6161 45.1358 64.5361 43.1358 64.4721 41.1518C64.4081 39.1678 64.3761 37.3438 64.3761 35.6798C64.3761 34.3678 64.4721 33.1038 64.6641 31.8878C64.8561 30.6398 65.1601 29.5518 65.5761 28.6238C65.9921 27.6638 66.5201 26.9118 67.1601 26.3678C67.8001 25.7918 68.5521 25.5038 69.4161 25.5038C70.3121 25.5038 71.0641 25.6638 71.6721 25.9838C72.3121 26.2718 72.8241 26.7038 73.2081 27.2798C73.5921 27.8238 73.8641 28.4958 74.0241 29.2958C74.2161 30.0638 74.3121 30.9118 74.3121 31.8398C74.3121 33.4398 74.0881 35.1998 73.6401 37.1198C73.1921 39.0078 72.6001 40.9118 71.8641 42.8318C71.1281 44.7518 70.2801 46.6078 69.3201 48.3998C68.3921 50.1598 67.4321 51.6958 66.4401 53.0078C66.5041 53.9678 66.5361 54.9598 66.5361 55.9838C66.5681 57.0078 66.6161 58.0958 66.6801 59.2478C67.4801 57.5198 68.3601 56.0318 69.3201 54.7838C69.7361 54.2398 70.2001 53.7118 70.7121 53.1998C71.2561 52.6558 71.8161 52.1758 72.3921 51.7598C73.0001 51.3438 73.6401 51.0078 74.3121 50.7518C75.0161 50.4958 75.7521 50.3678 76.5201 50.3678C77.7361 50.3678 78.7921 50.6718 79.6881 51.2798C80.5841 51.8878 81.0321 52.8638 81.0321 54.2078C81.0321 55.4878 80.7121 56.5758 80.0721 57.4718C79.4641 58.3678 78.6961 59.1198 77.7681 59.7278C76.8401 60.3038 75.8481 60.7358 74.7921 61.0238C73.7361 61.3118 72.7761 61.4878 71.9121 61.5518C71.8481 61.5518 71.8161 61.5678 71.8161 61.5998C71.8161 61.6638 71.8641 61.7598 71.9601 61.8878C72.6001 62.6238 73.3201 63.1518 74.1201 63.4718C74.9201 63.7918 75.7521 63.9518 76.6161 63.9518C77.6721 63.9518 78.7441 63.7598 79.8321 63.3758C80.9201 62.9598 81.9601 62.4318 82.9521 61.7918C83.9441 61.1198 84.8561 60.3678 85.6881 59.5358C86.5521 58.6718 87.2561 57.8078 87.8001 56.9438C88.1201 56.4638 88.4081 55.9678 88.6641 55.4558C88.9201 54.9438 89.1761 54.4318 89.4321 53.9198L90.3441 54.1598Z" fill="#FFF9F4"/>
<path d="M97.111 51.1838C97.111 50.3198 96.887 49.6158 96.439 49.0718C96.023 48.4958 95.335 48.2078 94.375 48.2078C93.863 48.2078 93.399 48.3678 92.983 48.6878C92.567 49.0078 92.215 49.4398 91.927 49.9838C91.639 50.4958 91.415 51.1038 91.255 51.8078C91.095 52.5118 91.015 53.2478 91.015 54.0158C91.015 55.2318 91.143 56.3198 91.399 57.2798C91.687 58.2078 92.087 59.0238 92.599 59.7278C93.271 59.1838 93.879 58.5598 94.423 57.8558C94.967 57.1518 95.431 56.4158 95.815 55.6478C96.231 54.8798 96.551 54.1118 96.775 53.3438C96.999 52.5758 97.111 51.8558 97.111 51.1838ZM109.255 54.1598C109.031 54.6398 108.791 55.1358 108.535 55.6478C108.311 56.1278 108.023 56.6078 107.671 57.0878C106.103 59.3278 104.311 61.0238 102.295 62.1758C100.311 63.2958 98.407 63.8558 96.583 63.8558C95.559 63.8558 94.599 63.6798 93.703 63.3278C92.839 62.9758 92.087 62.4478 91.447 61.7438C90.807 61.0398 90.295 60.1598 89.911 59.1038C89.527 58.0478 89.335 56.7998 89.335 55.3598C89.335 54.3998 89.479 53.4398 89.767 52.4798C90.055 51.5198 90.439 50.6558 90.919 49.8878C91.431 49.1198 92.007 48.4958 92.647 48.0158C93.319 47.5358 94.023 47.2958 94.759 47.2958C95.943 47.2958 96.807 47.6478 97.351 48.3518C97.895 49.0238 98.167 49.8878 98.167 50.9438C98.167 52.3838 97.719 53.9518 96.823 55.6478C95.959 57.3118 94.711 58.8638 93.079 60.3038C94.295 61.6798 95.863 62.3678 97.783 62.3678C99.223 62.3678 100.727 61.9358 102.295 61.0718C103.863 60.1758 105.335 58.7998 106.711 56.9438C107.063 56.4958 107.351 56.0158 107.575 55.5038C107.831 54.9598 108.087 54.4318 108.343 53.9198L109.255 54.1598Z" fill="#FFF9F4"/>
<path d="M150.84 42.0638C149.656 42.0638 148.52 42.1918 147.432 42.4478C146.376 42.7038 145.432 43.0078 144.6 43.3598C143.8 43.7118 143.144 44.0798 142.632 44.4638C142.152 44.8478 141.912 45.1838 141.912 45.4718C141.912 45.8558 142.36 46.0478 143.256 46.0478C144.792 46.0478 146.248 45.6798 147.624 44.9438C149.032 44.2078 150.296 43.2478 151.416 42.0638H150.84ZM164.808 49.2638C164.808 50.8318 164.36 52.5278 163.464 54.3518C162.6 56.1758 161.4 57.9838 159.864 59.7758C158.328 61.5678 156.504 63.2958 154.392 64.9598C152.28 66.6238 150.008 68.0958 147.576 69.3758C145.144 70.6558 142.584 71.6638 139.896 72.3998C137.208 73.1678 134.52 73.5518 131.832 73.5518C131.384 73.5518 130.888 73.5358 130.344 73.5038C129.832 73.4718 129.352 73.3918 128.904 73.2638C128.456 73.1678 128.072 72.9918 127.752 72.7358C127.432 72.5118 127.272 72.1918 127.272 71.7758C127.272 71.1998 127.56 70.6398 128.136 70.0958C128.712 69.5838 129.448 69.1038 130.344 68.6558C131.24 68.2078 132.216 67.8078 133.272 67.4558C134.328 67.1038 135.336 66.7998 136.296 66.5438C137.288 66.2878 138.152 66.0798 138.888 65.9198C139.624 65.7918 140.12 65.7278 140.376 65.7278C140.568 65.7278 140.712 65.7758 140.808 65.8718C140.904 65.9678 140.952 66.0638 140.952 66.1598C140.952 66.3198 140.872 66.3998 140.712 66.3998H140.088C139.256 66.3998 138.2 66.5598 136.92 66.8798C135.64 67.1998 134.392 67.5998 133.176 68.0798C131.96 68.5598 130.92 69.0878 130.056 69.6638C129.192 70.2718 128.76 70.8318 128.76 71.3438C128.76 71.6958 128.872 71.9678 129.096 72.1598C129.352 72.3838 129.656 72.5598 130.008 72.6878C130.36 72.8158 130.728 72.8958 131.112 72.9278C131.496 72.9918 131.832 73.0238 132.12 73.0238C134.392 73.0238 136.712 72.6398 139.08 71.8718C141.48 71.1038 143.8 70.0798 146.04 68.7998C148.312 67.5518 150.44 66.0958 152.424 64.4318C154.44 62.7998 156.2 61.1038 157.704 59.3438C159.208 57.5518 160.392 55.7758 161.256 54.0158C162.12 52.2238 162.552 50.5598 162.552 49.0238C162.552 47.1358 161.768 45.5678 160.2 44.3198C158.664 43.0398 156.12 42.3038 152.568 42.1118C151.128 43.4558 149.544 44.5438 147.816 45.3758C146.12 46.2078 144.392 46.6238 142.632 46.6238C141.384 46.6238 140.76 46.3198 140.76 45.7118C140.76 45.3278 141.016 44.8958 141.528 44.4158C142.072 43.9038 142.808 43.4238 143.736 42.9758C144.696 42.5278 145.832 42.1598 147.144 41.8718C148.456 41.5518 149.896 41.3918 151.464 41.3918H152.04C153.096 40.1438 153.944 38.7838 154.584 37.3118C155.224 35.8078 155.544 34.3358 155.544 32.8958C155.544 31.9358 155.368 31.0238 155.016 30.1598C154.696 29.2638 154.152 28.4958 153.384 27.8558C152.648 27.2158 151.672 26.7038 150.456 26.3198C149.272 25.9358 147.832 25.7438 146.136 25.7438C144.984 25.7438 143.384 25.9038 141.336 26.2238C139.32 26.5438 137.128 27.0398 134.76 27.7118C132.424 28.3518 130.04 29.1678 127.608 30.1598C125.176 31.1518 122.968 32.3038 120.984 33.6158C119 34.9278 117.384 36.4158 116.136 38.0798C114.888 39.7438 114.264 41.5838 114.264 43.5998C114.264 43.8558 114.216 44.0798 114.12 44.2718C114.024 44.4318 113.928 44.5118 113.832 44.5118C113.704 44.5118 113.608 44.3838 113.544 44.1278C113.448 43.8398 113.4 43.3758 113.4 42.7358C113.688 40.6558 114.536 38.7678 115.944 37.0718C117.352 35.3758 119.096 33.8718 121.176 32.5598C123.224 31.2158 125.48 30.0638 127.944 29.1038C130.408 28.1438 132.84 27.3598 135.24 26.7518C137.672 26.1118 139.928 25.6478 142.008 25.3598C144.12 25.0398 145.848 24.8798 147.192 24.8798C149.144 24.8798 150.792 25.0718 152.136 25.4558C153.512 25.8078 154.632 26.3038 155.496 26.9438C156.36 27.5518 156.984 28.2878 157.368 29.1518C157.752 30.0158 157.944 30.9278 157.944 31.8878C157.944 33.4558 157.512 35.0878 156.648 36.7838C155.816 38.4478 154.68 39.9998 153.24 41.4398C155.288 41.5358 157.048 41.8078 158.52 42.2558C159.992 42.6718 161.192 43.2318 162.12 43.9358C163.048 44.6078 163.72 45.4078 164.136 46.3358C164.584 47.2318 164.808 48.2078 164.808 49.2638ZM139.368 61.8878C139.368 62.3358 139.336 62.6558 139.272 62.8478C139.208 63.0398 139.032 63.1358 138.744 63.1358C138.104 63.1998 137.784 62.5598 137.784 61.2158C137.752 56.7998 137.704 52.7678 137.64 49.1198C137.608 45.4718 137.56 42.3198 137.496 39.6638C137.464 36.9758 137.432 34.8478 137.4 33.2798C137.368 31.7118 137.352 30.8158 137.352 30.5918C137.352 30.3358 137.432 30.1598 137.592 30.0638C137.752 29.9678 137.944 29.8878 138.168 29.8238C138.424 29.8238 138.616 29.9038 138.744 30.0638C138.904 30.2238 138.984 30.4158 138.984 30.6398C138.984 33.1998 139 35.8398 139.032 38.5598C139.064 41.2478 139.096 43.9358 139.128 46.6238C139.192 49.3118 139.24 51.9518 139.272 54.5438C139.336 57.1358 139.368 59.5838 139.368 61.8878Z" fill="#FFF9F4"/>
<path d="M183.466 54.2078C183.466 53.7278 183.386 53.3438 183.226 53.0558C183.066 52.7358 182.81 52.5758 182.458 52.5758C181.914 52.5758 181.498 52.8478 181.21 53.3918C180.922 53.9038 180.794 54.5598 180.826 55.3598C180.922 57.0558 181.226 58.4798 181.738 59.6318C182.282 58.8958 182.698 58.0638 182.986 57.1358C183.306 56.2078 183.466 55.2318 183.466 54.2078ZM196.426 54.1598C196.202 54.6398 195.962 55.1358 195.706 55.6478C195.45 56.1278 195.162 56.6078 194.842 57.0878C193.21 59.5198 191.562 61.3278 189.898 62.5118C188.234 63.6958 186.682 64.2878 185.242 64.2878C183.418 64.2878 182.026 63.4238 181.066 61.6958C179.946 62.8158 178.682 63.6638 177.274 64.2398C175.898 64.8158 174.538 65.1038 173.194 65.1038C172.394 65.1038 171.626 64.9918 170.89 64.7678C170.186 64.5438 169.578 64.2078 169.066 63.7598C168.522 63.2798 168.09 62.6878 167.77 61.9838C167.45 61.2478 167.29 60.3998 167.29 59.4398C167.29 58.2878 167.562 57.1198 168.106 55.9358C168.618 54.7198 169.338 53.6318 170.266 52.6718C171.226 51.6798 172.346 50.8638 173.626 50.2238C174.906 49.5838 176.298 49.2638 177.802 49.2638C179.018 49.2638 179.962 49.4398 180.634 49.7918C181.306 50.1118 181.642 50.4158 181.642 50.7038C181.642 50.8318 181.578 50.9278 181.45 50.9918C181.322 51.0558 181.21 51.0878 181.114 51.0878C181.082 51.0558 181.05 51.0398 181.018 51.0398H180.97C180.586 50.6878 180.154 50.4158 179.674 50.2238C179.194 49.9998 178.49 49.8878 177.562 49.8878C176.314 49.8878 175.178 50.1598 174.154 50.7038C173.162 51.2158 172.314 51.9038 171.61 52.7678C170.906 53.5998 170.362 54.5278 169.978 55.5518C169.594 56.5758 169.402 57.5838 169.402 58.5758C169.402 60.4958 169.85 61.8878 170.746 62.7518C171.642 63.6158 172.762 64.0478 174.106 64.0478C175.194 64.0478 176.33 63.7758 177.514 63.2318C178.698 62.6878 179.754 61.9198 180.682 60.9278C180.17 59.7758 179.914 58.2718 179.914 56.4158C179.914 55.1998 180.138 54.1438 180.586 53.2478C181.034 52.3518 181.674 51.9038 182.506 51.9038C183.658 51.9038 184.234 52.5758 184.234 53.9198C184.234 55.2638 184.042 56.4798 183.658 57.5678C183.274 58.6238 182.762 59.5838 182.122 60.4478C183.018 62.1118 184.266 62.9438 185.866 62.9438C187.082 62.9438 188.378 62.4318 189.754 61.4078C191.162 60.3838 192.538 58.8958 193.882 56.9438C194.202 56.4638 194.49 55.9678 194.746 55.4558C195.002 54.9438 195.258 54.4318 195.514 53.9198L196.426 54.1598Z" fill="#FFF9F4"/>
<path d="M203.093 32.7038C203.093 30.8798 202.789 29.4238 202.181 28.3358C201.605 27.2158 200.629 26.6558 199.253 26.6558C198.773 26.6558 198.325 26.8158 197.909 27.1358C197.525 27.4238 197.189 27.8238 196.901 28.3358C196.613 28.8478 196.389 29.4398 196.229 30.1118C196.069 30.7838 195.989 31.5038 195.989 32.2718C195.989 34.3838 196.005 36.3038 196.037 38.0318C196.069 39.7598 196.101 41.3918 196.133 42.9278C196.197 44.4638 196.261 45.9518 196.325 47.3918C196.389 48.8318 196.453 50.3038 196.517 51.8078C197.445 50.5598 198.309 49.1358 199.109 47.5358C199.909 45.9038 200.597 44.2398 201.173 42.5438C201.781 40.8158 202.245 39.1038 202.565 37.4078C202.917 35.7118 203.093 34.1438 203.093 32.7038ZM220.469 54.1598C220.245 54.6398 220.005 55.1358 219.749 55.6478C219.525 56.1598 219.237 56.6398 218.885 57.0878C217.125 59.5838 215.125 61.5518 212.885 62.9918C210.645 64.3998 208.421 65.1038 206.213 65.1038C204.837 65.1038 203.525 64.7838 202.277 64.1438C201.029 63.5358 199.925 62.5438 198.965 61.1678C198.837 61.0078 198.773 60.8638 198.773 60.7358C198.773 60.4478 198.965 60.3038 199.349 60.3038C199.381 60.3038 199.493 60.3358 199.685 60.3998C199.941 60.3998 200.229 60.4958 200.549 60.6878C200.901 60.8478 201.397 60.9278 202.037 60.9278C203.029 60.9278 203.957 60.7518 204.821 60.3998C205.685 60.0478 206.421 59.5998 207.029 59.0558C207.669 58.4798 208.165 57.8398 208.517 57.1358C208.869 56.3998 209.045 55.6478 209.045 54.8798C209.045 53.9198 208.789 53.0878 208.277 52.3838C207.797 51.6798 206.965 51.3278 205.781 51.3278C204.565 51.3278 203.445 51.7598 202.421 52.6238C201.397 53.4558 200.469 54.4798 199.637 55.6958C198.837 56.8798 198.149 58.1438 197.573 59.4878C196.997 60.7998 196.565 61.9518 196.277 62.9438C196.117 63.4878 195.973 63.8238 195.845 63.9518C195.717 64.0798 195.573 64.1438 195.413 64.1438C195.061 64.1438 194.901 63.8078 194.933 63.1358C194.933 62.8478 194.949 62.4958 194.981 62.0798C195.013 61.6638 195.045 61.2158 195.077 60.7358C195.077 60.2558 195.093 59.7758 195.125 59.2958C195.157 58.7838 195.173 58.3198 195.173 57.9038C195.173 56.4638 195.141 54.8158 195.077 52.9598C195.013 51.0718 194.933 49.1358 194.837 47.1518C194.741 45.1358 194.661 43.1358 194.597 41.1518C194.533 39.1678 194.501 37.3438 194.501 35.6798C194.501 34.3678 194.597 33.1038 194.789 31.8878C194.981 30.6398 195.285 29.5518 195.701 28.6238C196.117 27.6638 196.645 26.9118 197.285 26.3678C197.925 25.7918 198.677 25.5038 199.541 25.5038C200.437 25.5038 201.189 25.6638 201.797 25.9838C202.437 26.2718 202.949 26.7038 203.333 27.2798C203.717 27.8238 203.989 28.4958 204.149 29.2958C204.341 30.0638 204.437 30.9118 204.437 31.8398C204.437 33.4398 204.213 35.1998 203.765 37.1198C203.317 39.0078 202.725 40.9118 201.989 42.8318C201.253 44.7518 200.405 46.6078 199.445 48.3998C198.517 50.1598 197.557 51.6958 196.565 53.0078C196.629 53.9678 196.661 54.9598 196.661 55.9838C196.693 57.0078 196.741 58.0958 196.805 59.2478C197.605 57.5198 198.485 56.0318 199.445 54.7838C199.861 54.2398 200.325 53.7118 200.837 53.1998C201.381 52.6558 201.941 52.1758 202.517 51.7598C203.125 51.3438 203.765 51.0078 204.437 50.7518C205.141 50.4958 205.877 50.3678 206.645 50.3678C207.861 50.3678 208.917 50.6718 209.813 51.2798C210.709 51.8878 211.157 52.8638 211.157 54.2078C211.157 55.4878 210.837 56.5758 210.197 57.4718C209.589 58.3678 208.821 59.1198 207.893 59.7278C206.965 60.3038 205.973 60.7358 204.917 61.0238C203.861 61.3118 202.901 61.4878 202.037 61.5518C201.973 61.5518 201.941 61.5678 201.941 61.5998C201.941 61.6638 201.989 61.7598 202.085 61.8878C202.725 62.6238 203.445 63.1518 204.245 63.4718C205.045 63.7918 205.877 63.9518 206.741 63.9518C207.797 63.9518 208.869 63.7598 209.957 63.3758C211.045 62.9598 212.085 62.4318 213.077 61.7918C214.069 61.1198 214.981 60.3678 215.813 59.5358C216.677 58.6718 217.381 57.8078 217.925 56.9438C218.245 56.4638 218.533 55.9678 218.789 55.4558C219.045 54.9438 219.301 54.4318 219.557 53.9198L220.469 54.1598Z" fill="#FFF9F4"/>
<path d="M227.236 51.1838C227.236 50.3198 227.012 49.6158 226.564 49.0718C226.148 48.4958 225.46 48.2078 224.5 48.2078C223.988 48.2078 223.524 48.3678 223.108 48.6878C222.692 49.0078 222.34 49.4398 222.052 49.9838C221.764 50.4958 221.54 51.1038 221.38 51.8078C221.22 52.5118 221.14 53.2478 221.14 54.0158C221.14 55.2318 221.268 56.3198 221.524 57.2798C221.812 58.2078 222.212 59.0238 222.724 59.7278C223.396 59.1838 224.004 58.5598 224.548 57.8558C225.092 57.1518 225.556 56.4158 225.94 55.6478C226.356 54.8798 226.676 54.1118 226.9 53.3438C227.124 52.5758 227.236 51.8558 227.236 51.1838ZM239.38 54.1598C239.156 54.6398 238.916 55.1358 238.66 55.6478C238.436 56.1278 238.148 56.6078 237.796 57.0878C236.228 59.3278 234.436 61.0238 232.42 62.1758C230.436 63.2958 228.532 63.8558 226.708 63.8558C225.684 63.8558 224.724 63.6798 223.828 63.3278C222.964 62.9758 222.212 62.4478 221.572 61.7438C220.932 61.0398 220.42 60.1598 220.036 59.1038C219.652 58.0478 219.46 56.7998 219.46 55.3598C219.46 54.3998 219.604 53.4398 219.892 52.4798C220.18 51.5198 220.564 50.6558 221.044 49.8878C221.556 49.1198 222.132 48.4958 222.772 48.0158C223.444 47.5358 224.148 47.2958 224.884 47.2958C226.068 47.2958 226.932 47.6478 227.476 48.3518C228.02 49.0238 228.292 49.8878 228.292 50.9438C228.292 52.3838 227.844 53.9518 226.948 55.6478C226.084 57.3118 224.836 58.8638 223.204 60.3038C224.42 61.6798 225.988 62.3678 227.908 62.3678C229.348 62.3678 230.852 61.9358 232.42 61.0718C233.988 60.1758 235.46 58.7998 236.836 56.9438C237.188 56.4958 237.476 56.0158 237.7 55.5038C237.956 54.9598 238.212 54.4318 238.468 53.9198L239.38 54.1598Z" fill="#FFF9F4"/>
</svg>
