<svg width="240" height="79" viewBox="0 0 240 79" fill="none" xmlns="http://www.w3.org/2000/svg">
<path d="M129.676 65.0923C126.946 62.7425 124.31 60.234 121.77 57.5667C119.293 54.8359 116.975 52.0415 114.816 49.1837C112.72 46.3259 110.783 43.4363 109.005 40.515C107.29 37.5302 105.829 34.6088 104.623 31.751C102.464 34.1008 100.304 36.4823 98.1451 38.8956C96.0493 41.2453 94.1759 43.6268 92.5247 46.0401C90.8735 48.3899 89.5398 50.7714 88.5237 53.1847C87.4441 55.5344 86.9043 57.8842 86.9043 60.234C86.9043 63.0283 87.3806 65.4415 88.3332 67.4738C89.2223 69.4425 90.4289 71.0619 91.9531 72.3321C93.4773 73.6022 95.2237 74.5231 97.1925 75.0946C99.1612 75.6662 101.193 75.952 103.289 75.952C107.481 75.952 111.926 74.9676 116.626 72.9989C121.325 71.0302 125.675 68.3946 129.676 65.0923ZM117.864 8.60267C117.864 6.37992 117.356 4.79224 116.34 3.83963C115.387 2.82352 114.339 2.31546 113.196 2.31546C112.244 2.31546 111.228 2.633 110.148 3.26807C109.132 3.90314 108.179 4.82399 107.29 6.03063C106.464 7.17376 105.766 8.57091 105.194 10.2221C104.623 11.8733 104.337 13.6832 104.337 15.652C104.337 19.2719 105.004 23.114 106.337 27.1785C107.925 25.5273 109.418 23.9079 110.815 22.3202C112.212 20.7325 113.419 19.1766 114.435 17.6524C115.514 16.0648 116.34 14.5406 116.911 13.0799C117.546 11.5557 117.864 10.0633 117.864 8.60267ZM154.539 78.143C154.539 78.3335 154.412 78.524 154.158 78.7145C153.904 78.9051 153.523 79.0003 153.015 79.0003C149.205 77.7937 145.458 76.1107 141.774 73.9515C138.091 71.7288 134.503 69.1567 131.01 66.2354C128.597 68.0771 126.088 69.76 123.484 71.2842C120.881 72.8084 118.213 74.1103 115.483 75.1899C112.815 76.2695 110.116 77.0951 107.385 77.6667C104.718 78.2382 102.146 78.524 99.6692 78.524C97.256 78.524 94.9697 78.1747 92.8105 77.4761C90.6512 76.8411 88.7778 75.8567 87.1901 74.5231C85.6024 73.1259 84.364 71.4112 83.4749 69.379C82.5223 67.3468 82.046 64.9652 82.046 62.2344C82.046 59.3131 82.7128 56.4553 84.0465 53.661C85.3801 50.8031 87.0948 48.0088 89.1906 45.278C91.2863 42.5472 93.6043 39.8799 96.1446 37.2761C98.7484 34.6723 101.289 32.1321 103.765 29.6553C101.924 24.7017 101.003 20.2245 101.003 16.2235C101.003 13.8738 101.416 11.7145 102.241 9.74579C103.13 7.77707 104.242 6.09414 105.575 4.69698C106.909 3.29982 108.37 2.2202 109.957 1.45812C111.609 0.632523 113.164 0.219727 114.625 0.219727C116.34 0.219727 117.896 0.791291 119.293 1.93442C120.69 3.01404 121.389 4.82399 121.389 7.36428C121.389 8.95195 120.976 10.6031 120.15 12.3178C119.388 14.0325 118.34 15.8107 117.007 17.6524C115.737 19.4306 114.212 21.3041 112.434 23.2728C110.719 25.178 108.91 27.1467 107.004 29.179C109.1 34.9581 112.212 40.8325 116.34 46.8022C120.531 52.7084 125.612 58.2335 131.582 63.3776C134.82 60.4562 137.424 57.2491 139.393 53.7562C141.362 50.2633 142.346 46.6117 142.346 42.8013C142.346 41.5311 142.156 40.261 141.774 38.9908C141.457 37.6572 140.79 36.26 139.774 34.7994C139.774 34.6723 139.965 34.5453 140.346 34.4183C140.727 34.2278 141.076 34.1325 141.393 34.1325C142.283 34.1325 142.981 34.4501 143.489 35.0851C144.061 35.6567 144.474 36.3553 144.728 37.1809C145.045 38.0065 145.236 38.8638 145.299 39.7529C145.426 40.5785 145.49 41.2453 145.49 41.7534C145.49 45.9449 144.315 50.0093 141.965 53.9468C139.679 57.8207 136.694 61.3771 133.01 64.616C139.171 69.887 146.125 74.1738 153.873 77.4761C154.317 77.7302 154.539 77.9524 154.539 78.143Z" fill="#FFA55C"/>
<path d="M18.2482 44.1278C18.2482 42.1438 18.1202 40.4958 17.8642 39.1838C17.6402 37.8718 17.3202 37.2158 16.9042 37.2158C16.6482 37.2158 16.4082 37.4078 16.1842 37.7918C15.9602 38.1438 15.7682 38.6558 15.6082 39.3278C15.4802 39.9678 15.3682 40.7358 15.2722 41.6318C15.2082 42.4958 15.1762 43.4398 15.1762 44.4638C15.1762 46.2878 15.3042 48.2558 15.5602 50.3678C15.8162 52.4478 16.2642 54.4638 16.9042 56.4158C17.3522 54.3678 17.6882 52.2718 17.9122 50.1278C18.1362 47.9518 18.2482 45.9518 18.2482 44.1278ZM38.3602 22.3358C38.3602 22.4958 38.2962 22.6238 38.1682 22.7198C38.0402 22.8158 37.8802 22.9278 37.6882 23.0558C36.7282 23.6318 35.9442 24.4318 35.3362 25.4558C34.7282 26.4798 34.2322 27.5998 33.8482 28.8158C33.4962 30.0318 33.2562 31.2798 33.1282 32.5598C33.0002 33.8078 32.9362 34.9598 32.9362 36.0158C32.9362 36.7518 32.9682 37.6638 33.0322 38.7518C33.1282 39.8078 33.2242 40.9758 33.3202 42.2558C33.4482 43.5358 33.5442 44.8958 33.6082 46.3358C33.7042 47.7438 33.7522 49.1838 33.7522 50.6558C33.7522 52.7358 33.6242 54.7518 33.3682 56.7038C33.1442 58.6558 32.6802 60.3998 31.9762 61.9358C31.3042 63.4718 30.3602 64.7038 29.1442 65.6318C27.9282 66.5598 26.3442 67.0238 24.3922 67.0238C23.4962 67.0238 22.6482 66.8478 21.8482 66.4958C21.0802 66.1758 20.3602 65.7118 19.6882 65.1038C19.0482 64.4958 18.4562 63.7918 17.9122 62.9918C17.4002 62.1918 16.9362 61.3118 16.5202 60.3518C16.1042 61.4718 15.6082 62.5118 15.0322 63.4718C14.4882 64.4318 13.8802 65.2638 13.2082 65.9678C12.5362 66.6718 11.8002 67.2158 11.0002 67.5998C10.2002 67.9838 9.35217 68.1758 8.45617 68.1758C7.08017 68.1758 5.91217 67.8238 4.95217 67.1198C4.02417 66.4158 3.25617 65.4878 2.64817 64.3358C2.04017 63.2158 1.56017 61.9358 1.20817 60.4958C0.88817 59.0238 0.64817 57.5358 0.48817 56.0318C0.32817 54.4958 0.21617 53.0078 0.15217 51.5678C0.12017 50.0958 0.0881699 48.7998 0.0561699 47.6798C-0.00783008 45.6638 0.0241699 43.7598 0.15217 41.9678C0.31217 40.1438 0.48817 38.5118 0.68017 37.0718C0.87217 35.5998 1.06417 34.3358 1.25617 33.2798C1.44817 32.2238 1.57617 31.4398 1.64017 30.9278C1.67217 30.7358 1.86417 30.6078 2.21617 30.5438C2.60017 30.4798 2.93617 30.4478 3.22417 30.4478C3.44817 30.4478 3.64017 30.4798 3.80017 30.5438C3.96017 30.5758 4.04017 30.6718 4.04017 30.8318C4.04017 31.0238 3.96017 31.3598 3.80017 31.8398C3.64017 32.2878 3.40017 33.1518 3.08017 34.4318C2.95217 35.0078 2.80817 35.8398 2.64817 36.9278C2.52017 37.9838 2.39217 39.1838 2.26417 40.5278C2.16817 41.8718 2.08817 43.3118 2.02417 44.8478C1.96017 46.3518 1.92817 47.8238 1.92817 49.2638C1.92817 50.3838 1.97617 51.6158 2.07217 52.9598C2.16817 54.2718 2.32817 55.5838 2.55217 56.8958C2.77617 58.1758 3.08017 59.4238 3.46417 60.6398C3.84817 61.8558 4.31217 62.9278 4.85617 63.8558C5.43217 64.7838 6.10417 65.5198 6.87217 66.0638C7.64017 66.6398 8.53617 66.9278 9.56017 66.9278C10.3282 66.9278 11.0322 66.7358 11.6722 66.3518C12.3122 65.9678 12.9042 65.4238 13.4482 64.7198C13.9922 64.0478 14.4722 63.2478 14.8882 62.3198C15.3362 61.3918 15.7362 60.3838 16.0882 59.2958C15.3522 57.2798 14.8082 55.1358 14.4562 52.8638C14.1042 50.5918 13.9282 48.4958 13.9282 46.5758C13.9282 45.1678 13.9762 43.7758 14.0722 42.3998C14.2002 41.0238 14.3762 39.7918 14.6002 38.7038C14.8242 37.6158 15.1122 36.7358 15.4642 36.0638C15.8162 35.3918 16.2322 35.0558 16.7122 35.0558C17.0962 35.0558 17.4322 35.2958 17.7202 35.7758C18.0402 36.2558 18.2962 36.9118 18.4882 37.7438C18.7122 38.5758 18.8722 39.5678 18.9682 40.7198C19.0962 41.8398 19.1602 43.0558 19.1602 44.3678C19.1602 46.4798 19.0162 48.7038 18.7282 51.0398C18.4402 53.3438 17.9922 55.5998 17.3842 57.8078C17.8002 58.9278 18.2802 59.9678 18.8242 60.9278C19.3682 61.8558 19.9762 62.6718 20.6482 63.3758C21.3522 64.0798 22.1202 64.6238 22.9522 65.0078C23.8162 65.4238 24.7602 65.6318 25.7842 65.6318C27.1922 65.6318 28.3442 65.2798 29.2402 64.5758C30.1362 63.9038 30.8402 62.9758 31.3522 61.7918C31.8642 60.5758 32.2162 59.1838 32.4082 57.6158C32.6002 56.0158 32.6962 54.3038 32.6962 52.4798C32.6962 50.8478 32.6322 49.1678 32.5042 47.4398C32.4082 45.7118 32.2962 43.9998 32.1682 42.3038C32.0402 40.5758 31.9122 38.9118 31.7842 37.3118C31.6882 35.6798 31.6402 34.1758 31.6402 32.7998C31.6402 31.8078 31.7842 30.6558 32.0722 29.3438C32.3922 28.0318 32.8082 26.7998 33.3202 25.6478C33.8642 24.4638 34.4722 23.4718 35.1442 22.6718C35.8482 21.8398 36.5842 21.4238 37.3522 21.4238C37.5762 21.4238 37.8002 21.5358 38.0242 21.7598C38.2482 21.9518 38.3602 22.1438 38.3602 22.3358Z" fill="#1F1711"/>
<path d="M53.3478 54.2078C53.3478 53.7278 53.2678 53.3438 53.1078 53.0558C52.9478 52.7358 52.6918 52.5758 52.3398 52.5758C51.7958 52.5758 51.3798 52.8478 51.0918 53.3918C50.8038 53.9038 50.6758 54.5598 50.7078 55.3598C50.8038 57.0558 51.1078 58.4798 51.6198 59.6318C52.1638 58.8958 52.5798 58.0638 52.8678 57.1358C53.1878 56.2078 53.3478 55.2318 53.3478 54.2078ZM66.3078 54.1598C66.0838 54.6398 65.8438 55.1358 65.5878 55.6478C65.3318 56.1278 65.0438 56.6078 64.7238 57.0878C63.0918 59.5198 61.4438 61.3278 59.7798 62.5118C58.1158 63.6958 56.5638 64.2878 55.1238 64.2878C53.2998 64.2878 51.9078 63.4238 50.9478 61.6958C49.8278 62.8158 48.5638 63.6638 47.1558 64.2398C45.7798 64.8158 44.4198 65.1038 43.0758 65.1038C42.2758 65.1038 41.5078 64.9918 40.7718 64.7678C40.0678 64.5438 39.4598 64.2078 38.9478 63.7598C38.4038 63.2798 37.9718 62.6878 37.6518 61.9838C37.3318 61.2478 37.1718 60.3998 37.1718 59.4398C37.1718 58.2878 37.4438 57.1198 37.9878 55.9358C38.4998 54.7198 39.2198 53.6318 40.1478 52.6718C41.1078 51.6798 42.2278 50.8638 43.5078 50.2238C44.7878 49.5838 46.1798 49.2638 47.6838 49.2638C48.8998 49.2638 49.8438 49.4398 50.5158 49.7918C51.1878 50.1118 51.5238 50.4158 51.5238 50.7038C51.5238 50.8318 51.4598 50.9278 51.3318 50.9918C51.2038 51.0558 51.0918 51.0878 50.9958 51.0878C50.9638 51.0558 50.9318 51.0398 50.8998 51.0398H50.8518C50.4678 50.6878 50.0358 50.4158 49.5558 50.2238C49.0758 49.9998 48.3718 49.8878 47.4438 49.8878C46.1958 49.8878 45.0598 50.1598 44.0358 50.7038C43.0438 51.2158 42.1958 51.9038 41.4918 52.7678C40.7878 53.5998 40.2438 54.5278 39.8598 55.5518C39.4758 56.5758 39.2838 57.5838 39.2838 58.5758C39.2838 60.4958 39.7318 61.8878 40.6278 62.7518C41.5238 63.6158 42.6438 64.0478 43.9878 64.0478C45.0758 64.0478 46.2118 63.7758 47.3958 63.2318C48.5798 62.6878 49.6358 61.9198 50.5638 60.9278C50.0518 59.7758 49.7958 58.2718 49.7958 56.4158C49.7958 55.1998 50.0198 54.1438 50.4678 53.2478C50.9158 52.3518 51.5558 51.9038 52.3878 51.9038C53.5398 51.9038 54.1158 52.5758 54.1158 53.9198C54.1158 55.2638 53.9238 56.4798 53.5398 57.5678C53.1558 58.6238 52.6438 59.5838 52.0038 60.4478C52.8998 62.1118 54.1478 62.9438 55.7478 62.9438C56.9638 62.9438 58.2598 62.4318 59.6358 61.4078C61.0438 60.3838 62.4198 58.8958 63.7638 56.9438C64.0838 56.4638 64.3718 55.9678 64.6278 55.4558C64.8838 54.9438 65.1398 54.4318 65.3958 53.9198L66.3078 54.1598Z" fill="#1F1711"/>
<path d="M72.9749 32.7038C72.9749 30.8798 72.6709 29.4238 72.0629 28.3358C71.4869 27.2158 70.5109 26.6558 69.1349 26.6558C68.6549 26.6558 68.2069 26.8158 67.7909 27.1358C67.4069 27.4238 67.0709 27.8238 66.7829 28.3358C66.4949 28.8478 66.2709 29.4398 66.1109 30.1118C65.9509 30.7838 65.8709 31.5038 65.8709 32.2718C65.8709 34.3838 65.8869 36.3038 65.9189 38.0318C65.9509 39.7598 65.9829 41.3918 66.0149 42.9278C66.0789 44.4638 66.1429 45.9518 66.2069 47.3918C66.2709 48.8318 66.3349 50.3038 66.3989 51.8078C67.3269 50.5598 68.1909 49.1358 68.9909 47.5358C69.7909 45.9038 70.4789 44.2398 71.0549 42.5438C71.6629 40.8158 72.1269 39.1038 72.4469 37.4078C72.7989 35.7118 72.9749 34.1438 72.9749 32.7038ZM90.3509 54.1598C90.1269 54.6398 89.8869 55.1358 89.6309 55.6478C89.4069 56.1598 89.1189 56.6398 88.7669 57.0878C87.0069 59.5838 85.0069 61.5518 82.7669 62.9918C80.5269 64.3998 78.3029 65.1038 76.0949 65.1038C74.7189 65.1038 73.4069 64.7838 72.1589 64.1438C70.9109 63.5358 69.8069 62.5438 68.8469 61.1678C68.7189 61.0078 68.6549 60.8638 68.6549 60.7358C68.6549 60.4478 68.8469 60.3038 69.2309 60.3038C69.2629 60.3038 69.3749 60.3358 69.5669 60.3998C69.8229 60.3998 70.1109 60.4958 70.4309 60.6878C70.7829 60.8478 71.2789 60.9278 71.9189 60.9278C72.9109 60.9278 73.8389 60.7518 74.7029 60.3998C75.5669 60.0478 76.3029 59.5998 76.9109 59.0558C77.5509 58.4798 78.0469 57.8398 78.3989 57.1358C78.7509 56.3998 78.9269 55.6478 78.9269 54.8798C78.9269 53.9198 78.6709 53.0878 78.1589 52.3838C77.6789 51.6798 76.8469 51.3278 75.6629 51.3278C74.4469 51.3278 73.3269 51.7598 72.3029 52.6238C71.2789 53.4558 70.3509 54.4798 69.5189 55.6958C68.7189 56.8798 68.0309 58.1438 67.4549 59.4878C66.8789 60.7998 66.4469 61.9518 66.1589 62.9438C65.9989 63.4878 65.8549 63.8238 65.7269 63.9518C65.5989 64.0798 65.4549 64.1438 65.2949 64.1438C64.9429 64.1438 64.7829 63.8078 64.8149 63.1358C64.8149 62.8478 64.8309 62.4958 64.8629 62.0798C64.8949 61.6638 64.9269 61.2158 64.9589 60.7358C64.9589 60.2558 64.9749 59.7758 65.0069 59.2958C65.0389 58.7838 65.0549 58.3198 65.0549 57.9038C65.0549 56.4638 65.0229 54.8158 64.9589 52.9598C64.8949 51.0718 64.8149 49.1358 64.7189 47.1518C64.6229 45.1358 64.5429 43.1358 64.4789 41.1518C64.4149 39.1678 64.3829 37.3438 64.3829 35.6798C64.3829 34.3678 64.4789 33.1038 64.6709 31.8878C64.8629 30.6398 65.1669 29.5518 65.5829 28.6238C65.9989 27.6638 66.5269 26.9118 67.1669 26.3678C67.8069 25.7918 68.5589 25.5038 69.4229 25.5038C70.3189 25.5038 71.0709 25.6638 71.6789 25.9838C72.3189 26.2718 72.8309 26.7038 73.2149 27.2798C73.5989 27.8238 73.8709 28.4958 74.0309 29.2958C74.2229 30.0638 74.3189 30.9118 74.3189 31.8398C74.3189 33.4398 74.0949 35.1998 73.6469 37.1198C73.1989 39.0078 72.6069 40.9118 71.8709 42.8318C71.1349 44.7518 70.2869 46.6078 69.3269 48.3998C68.3989 50.1598 67.4389 51.6958 66.4469 53.0078C66.5109 53.9678 66.5429 54.9598 66.5429 55.9838C66.5749 57.0078 66.6229 58.0958 66.6869 59.2478C67.4869 57.5198 68.3669 56.0318 69.3269 54.7838C69.7429 54.2398 70.2069 53.7118 70.7189 53.1998C71.2629 52.6558 71.8229 52.1758 72.3989 51.7598C73.0069 51.3438 73.6469 51.0078 74.3189 50.7518C75.0229 50.4958 75.7589 50.3678 76.5269 50.3678C77.7429 50.3678 78.7989 50.6718 79.6949 51.2798C80.5909 51.8878 81.0389 52.8638 81.0389 54.2078C81.0389 55.4878 80.7189 56.5758 80.0789 57.4718C79.4709 58.3678 78.7029 59.1198 77.7749 59.7278C76.8469 60.3038 75.8549 60.7358 74.7989 61.0238C73.7429 61.3118 72.7829 61.4878 71.9189 61.5518C71.8549 61.5518 71.8229 61.5678 71.8229 61.5998C71.8229 61.6638 71.8709 61.7598 71.9669 61.8878C72.6069 62.6238 73.3269 63.1518 74.1269 63.4718C74.9269 63.7918 75.7589 63.9518 76.6229 63.9518C77.6789 63.9518 78.7509 63.7598 79.8389 63.3758C80.9269 62.9598 81.9669 62.4318 82.9589 61.7918C83.9509 61.1198 84.8629 60.3678 85.6949 59.5358C86.5589 58.6718 87.2629 57.8078 87.8069 56.9438C88.1269 56.4638 88.4149 55.9678 88.6709 55.4558C88.9269 54.9438 89.1829 54.4318 89.4389 53.9198L90.3509 54.1598Z" fill="#1F1711"/>
<path d="M97.1178 51.1838C97.1178 50.3198 96.8938 49.6158 96.4458 49.0718C96.0298 48.4958 95.3418 48.2078 94.3818 48.2078C93.8698 48.2078 93.4058 48.3678 92.9898 48.6878C92.5738 49.0078 92.2218 49.4398 91.9338 49.9838C91.6458 50.4958 91.4218 51.1038 91.2618 51.8078C91.1018 52.5118 91.0218 53.2478 91.0218 54.0158C91.0218 55.2318 91.1498 56.3198 91.4058 57.2798C91.6938 58.2078 92.0938 59.0238 92.6058 59.7278C93.2778 59.1838 93.8858 58.5598 94.4298 57.8558C94.9738 57.1518 95.4378 56.4158 95.8218 55.6478C96.2378 54.8798 96.5578 54.1118 96.7818 53.3438C97.0058 52.5758 97.1178 51.8558 97.1178 51.1838ZM109.262 54.1598C109.038 54.6398 108.798 55.1358 108.542 55.6478C108.318 56.1278 108.03 56.6078 107.678 57.0878C106.11 59.3278 104.318 61.0238 102.302 62.1758C100.318 63.2958 98.4138 63.8558 96.5898 63.8558C95.5658 63.8558 94.6058 63.6798 93.7098 63.3278C92.8458 62.9758 92.0938 62.4478 91.4538 61.7438C90.8138 61.0398 90.3018 60.1598 89.9178 59.1038C89.5338 58.0478 89.3418 56.7998 89.3418 55.3598C89.3418 54.3998 89.4858 53.4398 89.7738 52.4798C90.0618 51.5198 90.4458 50.6558 90.9258 49.8878C91.4378 49.1198 92.0138 48.4958 92.6538 48.0158C93.3258 47.5358 94.0298 47.2958 94.7658 47.2958C95.9498 47.2958 96.8138 47.6478 97.3578 48.3518C97.9018 49.0238 98.1738 49.8878 98.1738 50.9438C98.1738 52.3838 97.7258 53.9518 96.8298 55.6478C95.9658 57.3118 94.7178 58.8638 93.0858 60.3038C94.3018 61.6798 95.8698 62.3678 97.7898 62.3678C99.2298 62.3678 100.734 61.9358 102.302 61.0718C103.87 60.1758 105.342 58.7998 106.718 56.9438C107.07 56.4958 107.358 56.0158 107.582 55.5038C107.838 54.9598 108.094 54.4318 108.35 53.9198L109.262 54.1598Z" fill="#1F1711"/>
<path d="M150.847 42.0638C149.663 42.0638 148.527 42.1918 147.439 42.4478C146.383 42.7038 145.439 43.0078 144.607 43.3598C143.807 43.7118 143.151 44.0798 142.639 44.4638C142.159 44.8478 141.919 45.1838 141.919 45.4718C141.919 45.8558 142.367 46.0478 143.263 46.0478C144.799 46.0478 146.255 45.6798 147.631 44.9438C149.039 44.2078 150.303 43.2478 151.423 42.0638H150.847ZM164.815 49.2638C164.815 50.8318 164.367 52.5278 163.471 54.3518C162.607 56.1758 161.407 57.9838 159.871 59.7758C158.335 61.5678 156.511 63.2958 154.399 64.9598C152.287 66.6238 150.015 68.0958 147.583 69.3758C145.151 70.6558 142.591 71.6638 139.903 72.3998C137.215 73.1678 134.527 73.5518 131.839 73.5518C131.391 73.5518 130.895 73.5358 130.351 73.5038C129.839 73.4718 129.359 73.3918 128.911 73.2638C128.463 73.1678 128.079 72.9918 127.759 72.7358C127.439 72.5118 127.279 72.1918 127.279 71.7758C127.279 71.1998 127.567 70.6398 128.143 70.0958C128.719 69.5838 129.455 69.1038 130.351 68.6558C131.247 68.2078 132.223 67.8078 133.279 67.4558C134.335 67.1038 135.343 66.7998 136.303 66.5438C137.295 66.2878 138.159 66.0798 138.895 65.9198C139.631 65.7918 140.127 65.7278 140.383 65.7278C140.575 65.7278 140.719 65.7758 140.815 65.8718C140.911 65.9678 140.959 66.0638 140.959 66.1598C140.959 66.3198 140.879 66.3998 140.719 66.3998H140.095C139.263 66.3998 138.207 66.5598 136.927 66.8798C135.647 67.1998 134.399 67.5998 133.183 68.0798C131.967 68.5598 130.927 69.0878 130.063 69.6638C129.199 70.2718 128.767 70.8318 128.767 71.3438C128.767 71.6958 128.879 71.9678 129.103 72.1598C129.359 72.3838 129.663 72.5598 130.015 72.6878C130.367 72.8158 130.735 72.8958 131.119 72.9278C131.503 72.9918 131.839 73.0238 132.127 73.0238C134.399 73.0238 136.719 72.6398 139.087 71.8718C141.487 71.1038 143.807 70.0798 146.047 68.7998C148.319 67.5518 150.447 66.0958 152.431 64.4318C154.447 62.7998 156.207 61.1038 157.711 59.3438C159.215 57.5518 160.399 55.7758 161.263 54.0158C162.127 52.2238 162.559 50.5598 162.559 49.0238C162.559 47.1358 161.775 45.5678 160.207 44.3198C158.671 43.0398 156.127 42.3038 152.575 42.1118C151.135 43.4558 149.551 44.5438 147.823 45.3758C146.127 46.2078 144.399 46.6238 142.639 46.6238C141.391 46.6238 140.767 46.3198 140.767 45.7118C140.767 45.3278 141.023 44.8958 141.535 44.4158C142.079 43.9038 142.815 43.4238 143.743 42.9758C144.703 42.5278 145.839 42.1598 147.151 41.8718C148.463 41.5518 149.903 41.3918 151.471 41.3918H152.047C153.103 40.1438 153.951 38.7838 154.591 37.3118C155.231 35.8078 155.551 34.3358 155.551 32.8958C155.551 31.9358 155.375 31.0238 155.023 30.1598C154.703 29.2638 154.159 28.4958 153.391 27.8558C152.655 27.2158 151.679 26.7038 150.463 26.3198C149.279 25.9358 147.839 25.7438 146.143 25.7438C144.991 25.7438 143.391 25.9038 141.343 26.2238C139.327 26.5438 137.135 27.0398 134.767 27.7118C132.431 28.3518 130.047 29.1678 127.615 30.1598C125.183 31.1518 122.975 32.3038 120.991 33.6158C119.007 34.9278 117.391 36.4158 116.143 38.0798C114.895 39.7438 114.271 41.5838 114.271 43.5998C114.271 43.8558 114.223 44.0798 114.127 44.2718C114.031 44.4318 113.935 44.5118 113.839 44.5118C113.711 44.5118 113.615 44.3838 113.551 44.1278C113.455 43.8398 113.407 43.3758 113.407 42.7358C113.695 40.6558 114.543 38.7678 115.951 37.0718C117.359 35.3758 119.103 33.8718 121.183 32.5598C123.231 31.2158 125.487 30.0638 127.951 29.1038C130.415 28.1438 132.847 27.3598 135.247 26.7518C137.679 26.1118 139.935 25.6478 142.015 25.3598C144.127 25.0398 145.855 24.8798 147.199 24.8798C149.151 24.8798 150.799 25.0718 152.143 25.4558C153.519 25.8078 154.639 26.3038 155.503 26.9438C156.367 27.5518 156.991 28.2878 157.375 29.1518C157.759 30.0158 157.951 30.9278 157.951 31.8878C157.951 33.4558 157.519 35.0878 156.655 36.7838C155.823 38.4478 154.687 39.9998 153.247 41.4398C155.295 41.5358 157.055 41.8078 158.527 42.2558C159.999 42.6718 161.199 43.2318 162.127 43.9358C163.055 44.6078 163.727 45.4078 164.143 46.3358C164.591 47.2318 164.815 48.2078 164.815 49.2638ZM139.375 61.8878C139.375 62.3358 139.343 62.6558 139.279 62.8478C139.215 63.0398 139.039 63.1358 138.751 63.1358C138.111 63.1998 137.791 62.5598 137.791 61.2158C137.759 56.7998 137.711 52.7678 137.647 49.1198C137.615 45.4718 137.567 42.3198 137.503 39.6638C137.471 36.9758 137.439 34.8478 137.407 33.2798C137.375 31.7118 137.359 30.8158 137.359 30.5918C137.359 30.3358 137.439 30.1598 137.599 30.0638C137.759 29.9678 137.951 29.8878 138.175 29.8238C138.431 29.8238 138.623 29.9038 138.751 30.0638C138.911 30.2238 138.991 30.4158 138.991 30.6398C138.991 33.1998 139.007 35.8398 139.039 38.5598C139.071 41.2478 139.103 43.9358 139.135 46.6238C139.199 49.3118 139.247 51.9518 139.279 54.5438C139.343 57.1358 139.375 59.5838 139.375 61.8878Z" fill="#1F1711"/>
<path d="M183.473 54.2078C183.473 53.7278 183.393 53.3438 183.233 53.0558C183.073 52.7358 182.817 52.5758 182.465 52.5758C181.921 52.5758 181.505 52.8478 181.217 53.3918C180.929 53.9038 180.801 54.5598 180.833 55.3598C180.929 57.0558 181.233 58.4798 181.745 59.6318C182.289 58.8958 182.705 58.0638 182.993 57.1358C183.313 56.2078 183.473 55.2318 183.473 54.2078ZM196.433 54.1598C196.209 54.6398 195.969 55.1358 195.713 55.6478C195.457 56.1278 195.169 56.6078 194.849 57.0878C193.217 59.5198 191.569 61.3278 189.905 62.5118C188.241 63.6958 186.689 64.2878 185.249 64.2878C183.425 64.2878 182.033 63.4238 181.073 61.6958C179.953 62.8158 178.689 63.6638 177.281 64.2398C175.905 64.8158 174.545 65.1038 173.201 65.1038C172.401 65.1038 171.633 64.9918 170.897 64.7678C170.193 64.5438 169.585 64.2078 169.073 63.7598C168.529 63.2798 168.097 62.6878 167.777 61.9838C167.457 61.2478 167.297 60.3998 167.297 59.4398C167.297 58.2878 167.569 57.1198 168.113 55.9358C168.625 54.7198 169.345 53.6318 170.273 52.6718C171.233 51.6798 172.353 50.8638 173.633 50.2238C174.913 49.5838 176.305 49.2638 177.809 49.2638C179.025 49.2638 179.969 49.4398 180.641 49.7918C181.313 50.1118 181.649 50.4158 181.649 50.7038C181.649 50.8318 181.585 50.9278 181.457 50.9918C181.329 51.0558 181.217 51.0878 181.121 51.0878C181.089 51.0558 181.057 51.0398 181.025 51.0398H180.977C180.593 50.6878 180.161 50.4158 179.681 50.2238C179.201 49.9998 178.497 49.8878 177.569 49.8878C176.321 49.8878 175.185 50.1598 174.161 50.7038C173.169 51.2158 172.321 51.9038 171.617 52.7678C170.913 53.5998 170.369 54.5278 169.985 55.5518C169.601 56.5758 169.409 57.5838 169.409 58.5758C169.409 60.4958 169.857 61.8878 170.753 62.7518C171.649 63.6158 172.769 64.0478 174.113 64.0478C175.201 64.0478 176.337 63.7758 177.521 63.2318C178.705 62.6878 179.761 61.9198 180.689 60.9278C180.177 59.7758 179.921 58.2718 179.921 56.4158C179.921 55.1998 180.145 54.1438 180.593 53.2478C181.041 52.3518 181.681 51.9038 182.513 51.9038C183.665 51.9038 184.241 52.5758 184.241 53.9198C184.241 55.2638 184.049 56.4798 183.665 57.5678C183.281 58.6238 182.769 59.5838 182.129 60.4478C183.025 62.1118 184.273 62.9438 185.873 62.9438C187.089 62.9438 188.385 62.4318 189.761 61.4078C191.169 60.3838 192.545 58.8958 193.889 56.9438C194.209 56.4638 194.497 55.9678 194.753 55.4558C195.009 54.9438 195.265 54.4318 195.521 53.9198L196.433 54.1598Z" fill="#1F1711"/>
<path d="M203.1 32.7038C203.1 30.8798 202.796 29.4238 202.188 28.3358C201.612 27.2158 200.636 26.6558 199.26 26.6558C198.78 26.6558 198.332 26.8158 197.916 27.1358C197.532 27.4238 197.196 27.8238 196.908 28.3358C196.62 28.8478 196.396 29.4398 196.236 30.1118C196.076 30.7838 195.996 31.5038 195.996 32.2718C195.996 34.3838 196.012 36.3038 196.044 38.0318C196.076 39.7598 196.108 41.3918 196.14 42.9278C196.204 44.4638 196.268 45.9518 196.332 47.3918C196.396 48.8318 196.46 50.3038 196.524 51.8078C197.452 50.5598 198.316 49.1358 199.116 47.5358C199.916 45.9038 200.604 44.2398 201.18 42.5438C201.788 40.8158 202.252 39.1038 202.572 37.4078C202.924 35.7118 203.1 34.1438 203.1 32.7038ZM220.476 54.1598C220.252 54.6398 220.012 55.1358 219.756 55.6478C219.532 56.1598 219.244 56.6398 218.892 57.0878C217.132 59.5838 215.132 61.5518 212.892 62.9918C210.652 64.3998 208.428 65.1038 206.22 65.1038C204.844 65.1038 203.532 64.7838 202.284 64.1438C201.036 63.5358 199.932 62.5438 198.972 61.1678C198.844 61.0078 198.78 60.8638 198.78 60.7358C198.78 60.4478 198.972 60.3038 199.356 60.3038C199.388 60.3038 199.5 60.3358 199.692 60.3998C199.948 60.3998 200.236 60.4958 200.556 60.6878C200.908 60.8478 201.404 60.9278 202.044 60.9278C203.036 60.9278 203.964 60.7518 204.828 60.3998C205.692 60.0478 206.428 59.5998 207.036 59.0558C207.676 58.4798 208.172 57.8398 208.524 57.1358C208.876 56.3998 209.052 55.6478 209.052 54.8798C209.052 53.9198 208.796 53.0878 208.284 52.3838C207.804 51.6798 206.972 51.3278 205.788 51.3278C204.572 51.3278 203.452 51.7598 202.428 52.6238C201.404 53.4558 200.476 54.4798 199.644 55.6958C198.844 56.8798 198.156 58.1438 197.58 59.4878C197.004 60.7998 196.572 61.9518 196.284 62.9438C196.124 63.4878 195.98 63.8238 195.852 63.9518C195.724 64.0798 195.58 64.1438 195.42 64.1438C195.068 64.1438 194.908 63.8078 194.94 63.1358C194.94 62.8478 194.956 62.4958 194.988 62.0798C195.02 61.6638 195.052 61.2158 195.084 60.7358C195.084 60.2558 195.1 59.7758 195.132 59.2958C195.164 58.7838 195.18 58.3198 195.18 57.9038C195.18 56.4638 195.148 54.8158 195.084 52.9598C195.02 51.0718 194.94 49.1358 194.844 47.1518C194.748 45.1358 194.668 43.1358 194.604 41.1518C194.54 39.1678 194.508 37.3438 194.508 35.6798C194.508 34.3678 194.604 33.1038 194.796 31.8878C194.988 30.6398 195.292 29.5518 195.708 28.6238C196.124 27.6638 196.652 26.9118 197.292 26.3678C197.932 25.7918 198.684 25.5038 199.548 25.5038C200.444 25.5038 201.196 25.6638 201.804 25.9838C202.444 26.2718 202.956 26.7038 203.34 27.2798C203.724 27.8238 203.996 28.4958 204.156 29.2958C204.348 30.0638 204.444 30.9118 204.444 31.8398C204.444 33.4398 204.22 35.1998 203.772 37.1198C203.324 39.0078 202.732 40.9118 201.996 42.8318C201.26 44.7518 200.412 46.6078 199.452 48.3998C198.524 50.1598 197.564 51.6958 196.572 53.0078C196.636 53.9678 196.668 54.9598 196.668 55.9838C196.7 57.0078 196.748 58.0958 196.812 59.2478C197.612 57.5198 198.492 56.0318 199.452 54.7838C199.868 54.2398 200.332 53.7118 200.844 53.1998C201.388 52.6558 201.948 52.1758 202.524 51.7598C203.132 51.3438 203.772 51.0078 204.444 50.7518C205.148 50.4958 205.884 50.3678 206.652 50.3678C207.868 50.3678 208.924 50.6718 209.82 51.2798C210.716 51.8878 211.164 52.8638 211.164 54.2078C211.164 55.4878 210.844 56.5758 210.204 57.4718C209.596 58.3678 208.828 59.1198 207.9 59.7278C206.972 60.3038 205.98 60.7358 204.924 61.0238C203.868 61.3118 202.908 61.4878 202.044 61.5518C201.98 61.5518 201.948 61.5678 201.948 61.5998C201.948 61.6638 201.996 61.7598 202.092 61.8878C202.732 62.6238 203.452 63.1518 204.252 63.4718C205.052 63.7918 205.884 63.9518 206.748 63.9518C207.804 63.9518 208.876 63.7598 209.964 63.3758C211.052 62.9598 212.092 62.4318 213.084 61.7918C214.076 61.1198 214.988 60.3678 215.82 59.5358C216.684 58.6718 217.388 57.8078 217.932 56.9438C218.252 56.4638 218.54 55.9678 218.796 55.4558C219.052 54.9438 219.308 54.4318 219.564 53.9198L220.476 54.1598Z" fill="#1F1711"/>
<path d="M227.243 51.1838C227.243 50.3198 227.019 49.6158 226.571 49.0718C226.155 48.4958 225.467 48.2078 224.507 48.2078C223.995 48.2078 223.531 48.3678 223.115 48.6878C222.699 49.0078 222.347 49.4398 222.059 49.9838C221.771 50.4958 221.547 51.1038 221.387 51.8078C221.227 52.5118 221.147 53.2478 221.147 54.0158C221.147 55.2318 221.275 56.3198 221.531 57.2798C221.819 58.2078 222.219 59.0238 222.731 59.7278C223.403 59.1838 224.011 58.5598 224.555 57.8558C225.099 57.1518 225.563 56.4158 225.947 55.6478C226.363 54.8798 226.683 54.1118 226.907 53.3438C227.131 52.5758 227.243 51.8558 227.243 51.1838ZM239.387 54.1598C239.163 54.6398 238.923 55.1358 238.667 55.6478C238.443 56.1278 238.155 56.6078 237.803 57.0878C236.235 59.3278 234.443 61.0238 232.427 62.1758C230.443 63.2958 228.539 63.8558 226.715 63.8558C225.691 63.8558 224.731 63.6798 223.835 63.3278C222.971 62.9758 222.219 62.4478 221.579 61.7438C220.939 61.0398 220.427 60.1598 220.043 59.1038C219.659 58.0478 219.467 56.7998 219.467 55.3598C219.467 54.3998 219.611 53.4398 219.899 52.4798C220.187 51.5198 220.571 50.6558 221.051 49.8878C221.563 49.1198 222.139 48.4958 222.779 48.0158C223.451 47.5358 224.155 47.2958 224.891 47.2958C226.075 47.2958 226.939 47.6478 227.483 48.3518C228.027 49.0238 228.299 49.8878 228.299 50.9438C228.299 52.3838 227.851 53.9518 226.955 55.6478C226.091 57.3118 224.843 58.8638 223.211 60.3038C224.427 61.6798 225.995 62.3678 227.915 62.3678C229.355 62.3678 230.859 61.9358 232.427 61.0718C233.995 60.1758 235.467 58.7998 236.843 56.9438C237.195 56.4958 237.483 56.0158 237.707 55.5038C237.963 54.9598 238.219 54.4318 238.475 53.9198L239.387 54.1598Z" fill="#1F1711"/>
</svg>
