<svg width="240" height="79" viewBox="0 0 240 79" fill="none" xmlns="http://www.w3.org/2000/svg">
<path d="M129.676 65.0932C126.946 62.7435 124.31 60.2349 121.77 57.5676C119.293 54.8368 116.975 52.0425 114.816 49.1847C112.72 46.3269 110.783 43.4373 109.005 40.516C107.29 37.5311 105.829 34.6098 104.623 31.752C102.464 34.1018 100.304 36.4833 98.1451 38.8965C96.0494 41.2463 94.1759 43.6278 92.5247 46.0411C90.8735 48.3909 89.5399 50.7724 88.5238 53.1856C87.4441 55.5354 86.9043 57.8852 86.9043 60.2349C86.9043 63.0292 87.3806 65.4425 88.3332 67.4747C89.2223 69.4435 90.429 71.0629 91.9531 72.333C93.4773 73.6032 95.2238 74.524 97.1925 75.0956C99.1612 75.6672 101.193 75.9529 103.289 75.9529C107.481 75.9529 111.926 74.9686 116.626 72.9999C121.325 71.0311 125.675 68.3956 129.676 65.0932ZM117.864 8.60364C117.864 6.38089 117.356 4.79321 116.34 3.84061C115.387 2.8245 114.339 2.31644 113.196 2.31644C112.244 2.31644 111.228 2.63397 110.148 3.26905C109.132 3.90412 108.179 4.82497 107.29 6.0316C106.465 7.17473 105.766 8.57189 105.194 10.2231C104.623 11.8743 104.337 13.6842 104.337 15.6529C104.337 19.2728 105.004 23.115 106.338 27.1795C107.925 25.5283 109.418 23.9089 110.815 22.3212C112.212 20.7335 113.419 19.1776 114.435 17.6534C115.514 16.0657 116.34 14.5416 116.911 13.0809C117.547 11.5567 117.864 10.0643 117.864 8.60364ZM154.539 78.1439C154.539 78.3345 154.412 78.525 154.158 78.7155C153.904 78.906 153.523 79.0013 153.015 79.0013C149.205 77.7947 145.458 76.1117 141.774 73.9525C138.091 71.7297 134.503 69.1577 131.01 66.2364C128.597 68.0781 126.088 69.761 123.484 71.2852C120.881 72.8093 118.213 74.1112 115.483 75.1909C112.815 76.2705 110.116 77.0961 107.385 77.6676C104.718 78.2392 102.146 78.525 99.6693 78.525C97.256 78.525 94.9697 78.1757 92.8105 77.4771C90.6513 76.842 88.7778 75.8577 87.1901 74.524C85.6024 73.1269 84.3641 71.4122 83.475 69.38C82.5223 67.3477 82.046 64.9662 82.046 62.2354C82.046 59.3141 82.7129 56.4563 84.0465 53.6619C85.3802 50.8041 87.0949 48.0098 89.1906 45.279C91.2863 42.5482 93.6043 39.8809 96.1446 37.2771C98.7484 34.6733 101.289 32.133 103.765 29.6563C101.924 24.7027 101.003 20.2254 101.003 16.2245C101.003 13.8747 101.416 11.7155 102.241 9.74677C103.13 7.77805 104.242 6.09511 105.575 4.69795C106.909 3.3008 108.37 2.22118 109.957 1.45909C111.609 0.6335 113.165 0.220703 114.625 0.220703C116.34 0.220703 117.896 0.792267 119.293 1.9354C120.69 3.01501 121.389 4.82497 121.389 7.36525C121.389 8.95293 120.976 10.6041 120.15 12.3188C119.388 14.0335 118.34 15.8117 117.007 17.6534C115.737 19.4316 114.212 21.3051 112.434 23.2738C110.72 25.179 108.91 27.1477 107.004 29.1799C109.1 34.9591 112.212 40.8335 116.34 46.8032C120.531 52.7093 125.612 58.2345 131.582 63.3785C134.82 60.4572 137.424 57.2501 139.393 53.7572C141.362 50.2643 142.346 46.6127 142.346 42.8022C142.346 41.5321 142.156 40.2619 141.774 38.9918C141.457 37.6582 140.79 36.261 139.774 34.8003C139.774 34.6733 139.965 34.5463 140.346 34.4193C140.727 34.2288 141.076 34.1335 141.393 34.1335C142.283 34.1335 142.981 34.451 143.489 35.0861C144.061 35.6577 144.474 36.3563 144.728 37.1818C145.045 38.0074 145.236 38.8648 145.299 39.7539C145.426 40.5795 145.49 41.2463 145.49 41.7544C145.49 45.9458 144.315 50.0103 141.965 53.9477C139.679 57.8217 136.694 61.3781 133.011 64.6169C139.171 69.888 146.125 74.1747 153.873 77.4771C154.317 77.7311 154.539 77.9534 154.539 78.1439Z" fill="#D0D0D0"/>
<path d="M18.2401 44.1291C18.2401 42.1451 18.1121 40.4971 17.8561 39.1851C17.6321 37.8731 17.3121 37.2171 16.8961 37.2171C16.6401 37.2171 16.4001 37.4091 16.1761 37.7931C15.9521 38.1451 15.7601 38.6571 15.6001 39.3291C15.4721 39.9691 15.3601 40.7371 15.2641 41.6331C15.2001 42.4971 15.1681 43.4411 15.1681 44.4651C15.1681 46.2891 15.2961 48.2571 15.5521 50.3691C15.8081 52.4491 16.2561 54.4651 16.8961 56.4171C17.3441 54.3691 17.6801 52.2731 17.9041 50.1291C18.1281 47.9531 18.2401 45.9531 18.2401 44.1291ZM38.3521 22.3371C38.3521 22.4971 38.2881 22.6251 38.1601 22.7211C38.0321 22.8171 37.8721 22.9291 37.6801 23.0571C36.7201 23.6331 35.9361 24.4331 35.3281 25.4571C34.7201 26.4811 34.2241 27.6011 33.8401 28.8171C33.4881 30.0331 33.2481 31.2811 33.1201 32.5611C32.9921 33.8091 32.9281 34.9611 32.9281 36.0171C32.9281 36.7531 32.9601 37.6651 33.0241 38.7531C33.1201 39.8091 33.2161 40.9771 33.3121 42.2571C33.4401 43.5371 33.5361 44.8971 33.6001 46.3371C33.6961 47.7451 33.7441 49.1851 33.7441 50.6571C33.7441 52.7371 33.6161 54.7531 33.3601 56.7051C33.1361 58.6571 32.6721 60.4011 31.9681 61.9371C31.2961 63.4731 30.3521 64.7051 29.1361 65.6331C27.9201 66.5611 26.3361 67.0251 24.3841 67.0251C23.4881 67.0251 22.6401 66.8491 21.8401 66.4971C21.0721 66.1771 20.3521 65.7131 19.6801 65.1051C19.0401 64.4971 18.4481 63.7931 17.9041 62.9931C17.3921 62.1931 16.9281 61.3131 16.5121 60.3531C16.0961 61.4731 15.6001 62.5131 15.0241 63.4731C14.4801 64.4331 13.8721 65.2651 13.2001 65.9691C12.5281 66.6731 11.7921 67.2171 10.9921 67.6011C10.1921 67.9851 9.34411 68.1771 8.44811 68.1771C7.07211 68.1771 5.90411 67.8251 4.94411 67.1211C4.01611 66.4171 3.24811 65.4891 2.64011 64.3371C2.03211 63.2171 1.55211 61.9371 1.20011 60.4971C0.880113 59.0251 0.640113 57.5371 0.480113 56.0331C0.320113 54.4971 0.208113 53.0091 0.144113 51.5691C0.112113 50.0971 0.0801133 48.8011 0.0481133 47.6811C-0.0158867 45.6651 0.0161133 43.7611 0.144113 41.9691C0.304113 40.1451 0.480113 38.5131 0.672113 37.0731C0.864113 35.6011 1.05611 34.3371 1.24811 33.2811C1.44011 32.2251 1.56811 31.4411 1.63211 30.9291C1.66411 30.7371 1.85611 30.6091 2.20811 30.5451C2.59211 30.4811 2.92811 30.4491 3.21611 30.4491C3.44011 30.4491 3.63211 30.4811 3.79211 30.5451C3.95211 30.5771 4.03211 30.6731 4.03211 30.8331C4.03211 31.0251 3.95211 31.3611 3.79211 31.8411C3.63211 32.2891 3.39211 33.1531 3.07211 34.4331C2.94411 35.0091 2.80011 35.8411 2.64011 36.9291C2.51211 37.9851 2.38411 39.1851 2.25611 40.5291C2.16011 41.8731 2.08011 43.3131 2.01611 44.8491C1.95211 46.3531 1.92011 47.8251 1.92011 49.2651C1.92011 50.3851 1.96811 51.6171 2.06411 52.9611C2.16011 54.2731 2.32011 55.5851 2.54411 56.8971C2.76811 58.1771 3.07211 59.4251 3.45611 60.6411C3.84011 61.8571 4.30411 62.9291 4.84811 63.8571C5.42411 64.7851 6.09611 65.5211 6.86411 66.0651C7.63211 66.6411 8.52811 66.9291 9.55211 66.9291C10.3201 66.9291 11.0241 66.7371 11.6641 66.3531C12.3041 65.9691 12.8961 65.4251 13.4401 64.7211C13.9841 64.0491 14.4641 63.2491 14.8801 62.3211C15.3281 61.3931 15.7281 60.3851 16.0801 59.2971C15.3441 57.2811 14.8001 55.1371 14.4481 52.8651C14.0961 50.5931 13.9201 48.4971 13.9201 46.5771C13.9201 45.1691 13.9681 43.7771 14.0641 42.4011C14.1921 41.0251 14.3681 39.7931 14.5921 38.7051C14.8161 37.6171 15.1041 36.7371 15.4561 36.0651C15.8081 35.3931 16.2241 35.0571 16.7041 35.0571C17.0881 35.0571 17.4241 35.2971 17.7121 35.7771C18.0321 36.2571 18.2881 36.9131 18.4801 37.7451C18.7041 38.5771 18.8641 39.5691 18.9601 40.7211C19.0881 41.8411 19.1521 43.0571 19.1521 44.3691C19.1521 46.4811 19.0081 48.7051 18.7201 51.0411C18.4321 53.3451 17.9841 55.6011 17.3761 57.8091C17.7921 58.9291 18.2721 59.9691 18.8161 60.9291C19.3601 61.8571 19.9681 62.6731 20.6401 63.3771C21.3441 64.0811 22.1121 64.6251 22.9441 65.0091C23.8081 65.4251 24.7521 65.6331 25.7761 65.6331C27.1841 65.6331 28.3361 65.2811 29.2321 64.5771C30.1281 63.9051 30.8321 62.9771 31.3441 61.7931C31.8561 60.5771 32.2081 59.1851 32.4001 57.6171C32.5921 56.0171 32.6881 54.3051 32.6881 52.4811C32.6881 50.8491 32.6241 49.1691 32.4961 47.4411C32.4001 45.7131 32.2881 44.0011 32.1601 42.3051C32.0321 40.5771 31.9041 38.9131 31.7761 37.3131C31.6801 35.6811 31.6321 34.1771 31.6321 32.8011C31.6321 31.8091 31.7761 30.6571 32.0641 29.3451C32.3841 28.0331 32.8001 26.8011 33.3121 25.6491C33.8561 24.4651 34.4641 23.4731 35.1361 22.6731C35.8401 21.8411 36.5761 21.4251 37.3441 21.4251C37.5681 21.4251 37.7921 21.5371 38.0161 21.7611C38.2401 21.9531 38.3521 22.1451 38.3521 22.3371Z" fill="black"/>
<path d="M53.3397 54.2091C53.3397 53.7291 53.2597 53.3451 53.0997 53.0571C52.9397 52.7371 52.6837 52.5771 52.3317 52.5771C51.7877 52.5771 51.3717 52.8491 51.0837 53.3931C50.7957 53.9051 50.6677 54.5611 50.6997 55.3611C50.7957 57.0571 51.0997 58.4811 51.6117 59.6331C52.1557 58.8971 52.5717 58.0651 52.8597 57.1371C53.1797 56.2091 53.3397 55.2331 53.3397 54.2091ZM66.2997 54.1611C66.0757 54.6411 65.8357 55.1371 65.5797 55.6491C65.3237 56.1291 65.0357 56.6091 64.7157 57.0891C63.0837 59.5211 61.4357 61.3291 59.7717 62.5131C58.1077 63.6971 56.5557 64.2891 55.1157 64.2891C53.2917 64.2891 51.8997 63.4251 50.9397 61.6971C49.8197 62.8171 48.5557 63.6651 47.1477 64.2411C45.7717 64.8171 44.4117 65.1051 43.0677 65.1051C42.2677 65.1051 41.4997 64.9931 40.7637 64.7691C40.0597 64.5451 39.4517 64.2091 38.9397 63.7611C38.3957 63.2811 37.9637 62.6891 37.6437 61.9851C37.3237 61.2491 37.1637 60.4011 37.1637 59.4411C37.1637 58.2891 37.4357 57.1211 37.9797 55.9371C38.4917 54.7211 39.2117 53.6331 40.1397 52.6731C41.0997 51.6811 42.2197 50.8651 43.4997 50.2251C44.7797 49.5851 46.1717 49.2651 47.6757 49.2651C48.8917 49.2651 49.8357 49.4411 50.5077 49.7931C51.1797 50.1131 51.5157 50.4171 51.5157 50.7051C51.5157 50.8331 51.4517 50.9291 51.3237 50.9931C51.1957 51.0571 51.0837 51.0891 50.9877 51.0891C50.9557 51.0571 50.9237 51.0411 50.8917 51.0411H50.8437C50.4597 50.6891 50.0277 50.4171 49.5477 50.2251C49.0677 50.0011 48.3637 49.8891 47.4357 49.8891C46.1877 49.8891 45.0517 50.1611 44.0277 50.7051C43.0357 51.2171 42.1877 51.9051 41.4837 52.7691C40.7797 53.6011 40.2357 54.5291 39.8517 55.5531C39.4677 56.5771 39.2757 57.5851 39.2757 58.5771C39.2757 60.4971 39.7237 61.8891 40.6197 62.7531C41.5157 63.6171 42.6357 64.0491 43.9797 64.0491C45.0677 64.0491 46.2037 63.7771 47.3877 63.2331C48.5717 62.6891 49.6277 61.9211 50.5557 60.9291C50.0437 59.7771 49.7877 58.2731 49.7877 56.4171C49.7877 55.2011 50.0117 54.1451 50.4597 53.2491C50.9077 52.3531 51.5477 51.9051 52.3797 51.9051C53.5317 51.9051 54.1077 52.5771 54.1077 53.9211C54.1077 55.2651 53.9157 56.4811 53.5317 57.5691C53.1477 58.6251 52.6357 59.5851 51.9957 60.4491C52.8917 62.1131 54.1397 62.9451 55.7397 62.9451C56.9557 62.9451 58.2517 62.4331 59.6277 61.4091C61.0357 60.3851 62.4117 58.8971 63.7557 56.9451C64.0757 56.4651 64.3637 55.9691 64.6197 55.4571C64.8757 54.9451 65.1317 54.4331 65.3877 53.9211L66.2997 54.1611Z" fill="black"/>
<path d="M72.9669 32.7051C72.9669 30.8811 72.6629 29.4251 72.0549 28.3371C71.4789 27.2171 70.5029 26.6571 69.1269 26.6571C68.6469 26.6571 68.1989 26.8171 67.7829 27.1371C67.3989 27.4251 67.0629 27.8251 66.7749 28.3371C66.4869 28.8491 66.2629 29.4411 66.1029 30.1131C65.9429 30.7851 65.8629 31.5051 65.8629 32.2731C65.8629 34.3851 65.8789 36.3051 65.9109 38.0331C65.9429 39.7611 65.9749 41.3931 66.0069 42.9291C66.0709 44.4651 66.1349 45.9531 66.1989 47.3931C66.2629 48.8331 66.3269 50.3051 66.3909 51.8091C67.3189 50.5611 68.1829 49.1371 68.9829 47.5371C69.7829 45.9051 70.4709 44.2411 71.0469 42.5451C71.6549 40.8171 72.1189 39.1051 72.4389 37.4091C72.7909 35.7131 72.9669 34.1451 72.9669 32.7051ZM90.3429 54.1611C90.1189 54.6411 89.8789 55.1371 89.6229 55.6491C89.3989 56.1611 89.1109 56.6411 88.7589 57.0891C86.9989 59.5851 84.9989 61.5531 82.7589 62.9931C80.5189 64.4011 78.2949 65.1051 76.0869 65.1051C74.7109 65.1051 73.3989 64.7851 72.1509 64.1451C70.9029 63.5371 69.7989 62.5451 68.8389 61.1691C68.7109 61.0091 68.6469 60.8651 68.6469 60.7371C68.6469 60.4491 68.8389 60.3051 69.2229 60.3051C69.2549 60.3051 69.3669 60.3371 69.5589 60.4011C69.8149 60.4011 70.1029 60.4971 70.4229 60.6891C70.7749 60.8491 71.2709 60.9291 71.9109 60.9291C72.9029 60.9291 73.8309 60.7531 74.6949 60.4011C75.5589 60.0491 76.2949 59.6011 76.9029 59.0571C77.5429 58.4811 78.0389 57.8411 78.3909 57.1371C78.7429 56.4011 78.9189 55.6491 78.9189 54.8811C78.9189 53.9211 78.6629 53.0891 78.1509 52.3851C77.6709 51.6811 76.8389 51.3291 75.6549 51.3291C74.4389 51.3291 73.3189 51.7611 72.2949 52.6251C71.2709 53.4571 70.3429 54.4811 69.5109 55.6971C68.7109 56.8811 68.0229 58.1451 67.4469 59.4891C66.8709 60.8011 66.4389 61.9531 66.1509 62.9451C65.9909 63.4891 65.8469 63.8251 65.7189 63.9531C65.5909 64.0811 65.4469 64.1451 65.2869 64.1451C64.9349 64.1451 64.7749 63.8091 64.8069 63.1371C64.8069 62.8491 64.8229 62.4971 64.8549 62.0811C64.8869 61.6651 64.9189 61.2171 64.9509 60.7371C64.9509 60.2571 64.9669 59.7771 64.9989 59.2971C65.0309 58.7851 65.0469 58.3211 65.0469 57.9051C65.0469 56.4651 65.0149 54.8171 64.9509 52.9611C64.8869 51.0731 64.8069 49.1371 64.7109 47.1531C64.6149 45.1371 64.5349 43.1371 64.4709 41.1531C64.4069 39.1691 64.3749 37.3451 64.3749 35.6811C64.3749 34.3691 64.4709 33.1051 64.6629 31.8891C64.8549 30.6411 65.1589 29.5531 65.5749 28.6251C65.9909 27.6651 66.5189 26.9131 67.1589 26.3691C67.7989 25.7931 68.5509 25.5051 69.4149 25.5051C70.3109 25.5051 71.0629 25.6651 71.6709 25.9851C72.3109 26.2731 72.8229 26.7051 73.2069 27.2811C73.5909 27.8251 73.8629 28.4971 74.0229 29.2971C74.2149 30.0651 74.3109 30.9131 74.3109 31.8411C74.3109 33.4411 74.0869 35.2011 73.6389 37.1211C73.1909 39.0091 72.5989 40.9131 71.8629 42.8331C71.1269 44.7531 70.2789 46.6091 69.3189 48.4011C68.3909 50.1611 67.4309 51.6971 66.4389 53.0091C66.5029 53.9691 66.5349 54.9611 66.5349 55.9851C66.5669 57.0091 66.6149 58.0971 66.6789 59.2491C67.4789 57.5211 68.3589 56.0331 69.3189 54.7851C69.7349 54.2411 70.1989 53.7131 70.7109 53.2011C71.2549 52.6571 71.8149 52.1771 72.3909 51.7611C72.9989 51.3451 73.6389 51.0091 74.3109 50.7531C75.0149 50.4971 75.7509 50.3691 76.5189 50.3691C77.7349 50.3691 78.7909 50.6731 79.6869 51.2811C80.5829 51.8891 81.0309 52.8651 81.0309 54.2091C81.0309 55.4891 80.7109 56.5771 80.0709 57.4731C79.4629 58.3691 78.6949 59.1211 77.7669 59.7291C76.8389 60.3051 75.8469 60.7371 74.7909 61.0251C73.7349 61.3131 72.7749 61.4891 71.9109 61.5531C71.8469 61.5531 71.8149 61.5691 71.8149 61.6011C71.8149 61.6651 71.8629 61.7611 71.9589 61.8891C72.5989 62.6251 73.3189 63.1531 74.1189 63.4731C74.9189 63.7931 75.7509 63.9531 76.6149 63.9531C77.6709 63.9531 78.7429 63.7611 79.8309 63.3771C80.9189 62.9611 81.9589 62.4331 82.9509 61.7931C83.9429 61.1211 84.8549 60.3691 85.6869 59.5371C86.5509 58.6731 87.2549 57.8091 87.7989 56.9451C88.1189 56.4651 88.4069 55.9691 88.6629 55.4571C88.9189 54.9451 89.1749 54.4331 89.4309 53.9211L90.3429 54.1611Z" fill="black"/>
<path d="M97.1097 51.1851C97.1097 50.3211 96.8857 49.6171 96.4377 49.0731C96.0217 48.4971 95.3337 48.2091 94.3737 48.2091C93.8617 48.2091 93.3977 48.3691 92.9817 48.6891C92.5657 49.0091 92.2137 49.4411 91.9257 49.9851C91.6377 50.4971 91.4137 51.1051 91.2537 51.8091C91.0937 52.5131 91.0137 53.2491 91.0137 54.0171C91.0137 55.2331 91.1417 56.3211 91.3977 57.2811C91.6857 58.2091 92.0857 59.0251 92.5977 59.7291C93.2697 59.1851 93.8777 58.5611 94.4217 57.8571C94.9657 57.1531 95.4297 56.4171 95.8137 55.6491C96.2297 54.8811 96.5497 54.1131 96.7737 53.3451C96.9977 52.5771 97.1097 51.8571 97.1097 51.1851ZM109.254 54.1611C109.03 54.6411 108.79 55.1371 108.534 55.6491C108.31 56.1291 108.022 56.6091 107.67 57.0891C106.102 59.3291 104.31 61.0251 102.294 62.1771C100.31 63.2971 98.4057 63.8571 96.5817 63.8571C95.5577 63.8571 94.5977 63.6811 93.7017 63.3291C92.8377 62.9771 92.0857 62.4491 91.4457 61.7451C90.8057 61.0411 90.2937 60.1611 89.9097 59.1051C89.5257 58.0491 89.3337 56.8011 89.3337 55.3611C89.3337 54.4011 89.4777 53.4411 89.7657 52.4811C90.0537 51.5211 90.4377 50.6571 90.9177 49.8891C91.4297 49.1211 92.0057 48.4971 92.6457 48.0171C93.3177 47.5371 94.0217 47.2971 94.7577 47.2971C95.9417 47.2971 96.8057 47.6491 97.3497 48.3531C97.8937 49.0251 98.1657 49.8891 98.1657 50.9451C98.1657 52.3851 97.7177 53.9531 96.8217 55.6491C95.9577 57.3131 94.7097 58.8651 93.0777 60.3051C94.2937 61.6811 95.8617 62.3691 97.7817 62.3691C99.2217 62.3691 100.726 61.9371 102.294 61.0731C103.862 60.1771 105.334 58.8011 106.71 56.9451C107.062 56.4971 107.35 56.0171 107.574 55.5051C107.83 54.9611 108.086 54.4331 108.342 53.9211L109.254 54.1611Z" fill="black"/>
<path d="M150.839 42.0651C149.655 42.0651 148.519 42.1931 147.431 42.4491C146.375 42.7051 145.431 43.0091 144.599 43.3611C143.799 43.7131 143.143 44.0811 142.631 44.4651C142.151 44.8491 141.911 45.1851 141.911 45.4731C141.911 45.8571 142.359 46.0491 143.255 46.0491C144.791 46.0491 146.247 45.6811 147.623 44.9451C149.031 44.2091 150.295 43.2491 151.415 42.0651H150.839ZM164.807 49.2651C164.807 50.8331 164.359 52.5291 163.463 54.3531C162.599 56.1771 161.399 57.9851 159.863 59.7771C158.327 61.5691 156.503 63.2971 154.391 64.9611C152.279 66.6251 150.007 68.0971 147.575 69.3771C145.143 70.6571 142.583 71.6651 139.895 72.4011C137.207 73.1691 134.519 73.5531 131.831 73.5531C131.383 73.5531 130.887 73.5371 130.343 73.5051C129.831 73.4731 129.351 73.3931 128.903 73.2651C128.455 73.1691 128.071 72.9931 127.751 72.7371C127.431 72.5131 127.271 72.1931 127.271 71.7771C127.271 71.2011 127.559 70.6411 128.135 70.0971C128.711 69.5851 129.447 69.1051 130.343 68.6571C131.239 68.2091 132.215 67.8091 133.271 67.4571C134.327 67.1051 135.335 66.8011 136.295 66.5451C137.287 66.2891 138.151 66.0811 138.887 65.9211C139.623 65.7931 140.119 65.7291 140.375 65.7291C140.567 65.7291 140.711 65.7771 140.807 65.8731C140.903 65.9691 140.951 66.0651 140.951 66.1611C140.951 66.3211 140.871 66.4011 140.711 66.4011H140.087C139.255 66.4011 138.199 66.5611 136.919 66.8811C135.639 67.2011 134.391 67.6011 133.175 68.0811C131.959 68.5611 130.919 69.0891 130.055 69.6651C129.191 70.2731 128.759 70.8331 128.759 71.3451C128.759 71.6971 128.871 71.9691 129.095 72.1611C129.351 72.3851 129.655 72.5611 130.007 72.6891C130.359 72.8171 130.727 72.8971 131.111 72.9291C131.495 72.9931 131.831 73.0251 132.119 73.0251C134.391 73.0251 136.711 72.6411 139.079 71.8731C141.479 71.1051 143.799 70.0811 146.039 68.8011C148.311 67.5531 150.439 66.0971 152.423 64.4331C154.439 62.8011 156.199 61.1051 157.703 59.3451C159.207 57.5531 160.391 55.7771 161.255 54.0171C162.119 52.2251 162.551 50.5611 162.551 49.0251C162.551 47.1371 161.767 45.5691 160.199 44.3211C158.663 43.0411 156.119 42.3051 152.567 42.1131C151.127 43.4571 149.543 44.5451 147.815 45.3771C146.119 46.2091 144.391 46.6251 142.631 46.6251C141.383 46.6251 140.759 46.3211 140.759 45.7131C140.759 45.3291 141.015 44.8971 141.527 44.4171C142.071 43.9051 142.807 43.4251 143.735 42.9771C144.695 42.5291 145.831 42.1611 147.143 41.8731C148.455 41.5531 149.895 41.3931 151.463 41.3931H152.039C153.095 40.1451 153.943 38.7851 154.583 37.3131C155.223 35.8091 155.543 34.3371 155.543 32.8971C155.543 31.9371 155.367 31.0251 155.015 30.1611C154.695 29.2651 154.151 28.4971 153.383 27.8571C152.647 27.2171 151.671 26.7051 150.455 26.3211C149.271 25.9371 147.831 25.7451 146.135 25.7451C144.983 25.7451 143.383 25.9051 141.335 26.2251C139.319 26.5451 137.127 27.0411 134.759 27.7131C132.423 28.3531 130.039 29.1691 127.607 30.1611C125.175 31.1531 122.967 32.3051 120.983 33.6171C118.999 34.9291 117.383 36.4171 116.135 38.0811C114.887 39.7451 114.263 41.5851 114.263 43.6011C114.263 43.8571 114.215 44.0811 114.119 44.2731C114.023 44.4331 113.927 44.5131 113.831 44.5131C113.703 44.5131 113.607 44.3851 113.543 44.1291C113.447 43.8411 113.399 43.3771 113.399 42.7371C113.687 40.6571 114.535 38.7691 115.943 37.0731C117.351 35.3771 119.095 33.8731 121.175 32.5611C123.223 31.2171 125.479 30.0651 127.943 29.1051C130.407 28.1451 132.839 27.3611 135.239 26.7531C137.671 26.1131 139.927 25.6491 142.007 25.3611C144.119 25.0411 145.847 24.8811 147.191 24.8811C149.143 24.8811 150.791 25.0731 152.135 25.4571C153.511 25.8091 154.631 26.3051 155.495 26.9451C156.359 27.5531 156.983 28.2891 157.367 29.1531C157.751 30.0171 157.943 30.9291 157.943 31.8891C157.943 33.4571 157.511 35.0891 156.647 36.7851C155.815 38.4491 154.679 40.0011 153.239 41.4411C155.287 41.5371 157.047 41.8091 158.519 42.2571C159.991 42.6731 161.191 43.2331 162.119 43.9371C163.047 44.6091 163.719 45.4091 164.135 46.3371C164.583 47.2331 164.807 48.2091 164.807 49.2651ZM139.367 61.8891C139.367 62.3371 139.335 62.6571 139.271 62.8491C139.207 63.0411 139.031 63.1371 138.743 63.1371C138.103 63.2011 137.783 62.5611 137.783 61.2171C137.751 56.8011 137.703 52.7691 137.639 49.1211C137.607 45.4731 137.559 42.3211 137.495 39.6651C137.463 36.9771 137.431 34.8491 137.399 33.2811C137.367 31.7131 137.351 30.8171 137.351 30.5931C137.351 30.3371 137.431 30.1611 137.591 30.0651C137.751 29.9691 137.943 29.8891 138.167 29.8251C138.423 29.8251 138.615 29.9051 138.743 30.0651C138.903 30.2251 138.983 30.4171 138.983 30.6411C138.983 33.2011 138.999 35.8411 139.031 38.5611C139.063 41.2491 139.095 43.9371 139.127 46.6251C139.191 49.3131 139.239 51.9531 139.271 54.5451C139.335 57.1371 139.367 59.5851 139.367 61.8891Z" fill="black"/>
<path d="M183.465 54.2091C183.465 53.7291 183.385 53.3451 183.225 53.0571C183.065 52.7371 182.809 52.5771 182.457 52.5771C181.913 52.5771 181.497 52.8491 181.209 53.3931C180.921 53.9051 180.793 54.5611 180.825 55.3611C180.921 57.0571 181.225 58.4811 181.737 59.6331C182.281 58.8971 182.697 58.0651 182.985 57.1371C183.305 56.2091 183.465 55.2331 183.465 54.2091ZM196.425 54.1611C196.201 54.6411 195.961 55.1371 195.705 55.6491C195.449 56.1291 195.161 56.6091 194.841 57.0891C193.209 59.5211 191.561 61.3291 189.897 62.5131C188.233 63.6971 186.681 64.2891 185.241 64.2891C183.417 64.2891 182.025 63.4251 181.065 61.6971C179.945 62.8171 178.681 63.6651 177.273 64.2411C175.897 64.8171 174.537 65.1051 173.193 65.1051C172.393 65.1051 171.625 64.9931 170.889 64.7691C170.185 64.5451 169.577 64.2091 169.065 63.7611C168.521 63.2811 168.089 62.6891 167.769 61.9851C167.449 61.2491 167.289 60.4011 167.289 59.4411C167.289 58.2891 167.561 57.1211 168.105 55.9371C168.617 54.7211 169.337 53.6331 170.265 52.6731C171.225 51.6811 172.345 50.8651 173.625 50.2251C174.905 49.5851 176.297 49.2651 177.801 49.2651C179.017 49.2651 179.961 49.4411 180.633 49.7931C181.305 50.1131 181.641 50.4171 181.641 50.7051C181.641 50.8331 181.577 50.9291 181.449 50.9931C181.321 51.0571 181.209 51.0891 181.113 51.0891C181.081 51.0571 181.049 51.0411 181.017 51.0411H180.969C180.585 50.6891 180.153 50.4171 179.673 50.2251C179.193 50.0011 178.489 49.8891 177.561 49.8891C176.313 49.8891 175.177 50.1611 174.153 50.7051C173.161 51.2171 172.313 51.9051 171.609 52.7691C170.905 53.6011 170.361 54.5291 169.977 55.5531C169.593 56.5771 169.401 57.5851 169.401 58.5771C169.401 60.4971 169.849 61.8891 170.745 62.7531C171.641 63.6171 172.761 64.0491 174.105 64.0491C175.193 64.0491 176.329 63.7771 177.513 63.2331C178.697 62.6891 179.753 61.9211 180.681 60.9291C180.169 59.7771 179.913 58.2731 179.913 56.4171C179.913 55.2011 180.137 54.1451 180.585 53.2491C181.033 52.3531 181.673 51.9051 182.505 51.9051C183.657 51.9051 184.233 52.5771 184.233 53.9211C184.233 55.2651 184.041 56.4811 183.657 57.5691C183.273 58.6251 182.761 59.5851 182.121 60.4491C183.017 62.1131 184.265 62.9451 185.865 62.9451C187.081 62.9451 188.377 62.4331 189.753 61.4091C191.161 60.3851 192.537 58.8971 193.881 56.9451C194.201 56.4651 194.489 55.9691 194.745 55.4571C195.001 54.9451 195.257 54.4331 195.513 53.9211L196.425 54.1611Z" fill="black"/>
<path d="M203.092 32.7051C203.092 30.8811 202.788 29.4251 202.18 28.3371C201.604 27.2171 200.628 26.6571 199.252 26.6571C198.772 26.6571 198.324 26.8171 197.908 27.1371C197.524 27.4251 197.188 27.8251 196.9 28.3371C196.612 28.8491 196.388 29.4411 196.228 30.1131C196.068 30.7851 195.988 31.5051 195.988 32.2731C195.988 34.3851 196.004 36.3051 196.036 38.0331C196.068 39.7611 196.1 41.3931 196.132 42.9291C196.196 44.4651 196.26 45.9531 196.324 47.3931C196.388 48.8331 196.452 50.3051 196.516 51.8091C197.444 50.5611 198.308 49.1371 199.108 47.5371C199.908 45.9051 200.596 44.2411 201.172 42.5451C201.78 40.8171 202.244 39.1051 202.564 37.4091C202.916 35.7131 203.092 34.1451 203.092 32.7051ZM220.468 54.1611C220.244 54.6411 220.004 55.1371 219.748 55.6491C219.524 56.1611 219.236 56.6411 218.884 57.0891C217.124 59.5851 215.124 61.5531 212.884 62.9931C210.644 64.4011 208.42 65.1051 206.212 65.1051C204.836 65.1051 203.524 64.7851 202.276 64.1451C201.028 63.5371 199.924 62.5451 198.964 61.1691C198.836 61.0091 198.772 60.8651 198.772 60.7371C198.772 60.4491 198.964 60.3051 199.348 60.3051C199.38 60.3051 199.492 60.3371 199.684 60.4011C199.94 60.4011 200.228 60.4971 200.548 60.6891C200.9 60.8491 201.396 60.9291 202.036 60.9291C203.028 60.9291 203.956 60.7531 204.82 60.4011C205.684 60.0491 206.42 59.6011 207.028 59.0571C207.668 58.4811 208.164 57.8411 208.516 57.1371C208.868 56.4011 209.044 55.6491 209.044 54.8811C209.044 53.9211 208.788 53.0891 208.276 52.3851C207.796 51.6811 206.964 51.3291 205.78 51.3291C204.564 51.3291 203.444 51.7611 202.42 52.6251C201.396 53.4571 200.468 54.4811 199.636 55.6971C198.836 56.8811 198.148 58.1451 197.572 59.4891C196.996 60.8011 196.564 61.9531 196.276 62.9451C196.116 63.4891 195.972 63.8251 195.844 63.9531C195.716 64.0811 195.572 64.1451 195.412 64.1451C195.06 64.1451 194.9 63.8091 194.932 63.1371C194.932 62.8491 194.948 62.4971 194.98 62.0811C195.012 61.6651 195.044 61.2171 195.076 60.7371C195.076 60.2571 195.092 59.7771 195.124 59.2971C195.156 58.7851 195.172 58.3211 195.172 57.9051C195.172 56.4651 195.14 54.8171 195.076 52.9611C195.012 51.0731 194.932 49.1371 194.836 47.1531C194.74 45.1371 194.66 43.1371 194.596 41.1531C194.532 39.1691 194.5 37.3451 194.5 35.6811C194.5 34.3691 194.596 33.1051 194.788 31.8891C194.98 30.6411 195.284 29.5531 195.7 28.6251C196.116 27.6651 196.644 26.9131 197.284 26.3691C197.924 25.7931 198.676 25.5051 199.54 25.5051C200.436 25.5051 201.188 25.6651 201.796 25.9851C202.436 26.2731 202.948 26.7051 203.332 27.2811C203.716 27.8251 203.988 28.4971 204.148 29.2971C204.34 30.0651 204.436 30.9131 204.436 31.8411C204.436 33.4411 204.212 35.2011 203.764 37.1211C203.316 39.0091 202.724 40.9131 201.988 42.8331C201.252 44.7531 200.404 46.6091 199.444 48.4011C198.516 50.1611 197.556 51.6971 196.564 53.0091C196.628 53.9691 196.66 54.9611 196.66 55.9851C196.692 57.0091 196.74 58.0971 196.804 59.2491C197.604 57.5211 198.484 56.0331 199.444 54.7851C199.86 54.2411 200.324 53.7131 200.836 53.2011C201.38 52.6571 201.94 52.1771 202.516 51.7611C203.124 51.3451 203.764 51.0091 204.436 50.7531C205.14 50.4971 205.876 50.3691 206.644 50.3691C207.86 50.3691 208.916 50.6731 209.812 51.2811C210.708 51.8891 211.156 52.8651 211.156 54.2091C211.156 55.4891 210.836 56.5771 210.196 57.4731C209.588 58.3691 208.82 59.1211 207.892 59.7291C206.964 60.3051 205.972 60.7371 204.916 61.0251C203.86 61.3131 202.9 61.4891 202.036 61.5531C201.972 61.5531 201.94 61.5691 201.94 61.6011C201.94 61.6651 201.988 61.7611 202.084 61.8891C202.724 62.6251 203.444 63.1531 204.244 63.4731C205.044 63.7931 205.876 63.9531 206.74 63.9531C207.796 63.9531 208.868 63.7611 209.956 63.3771C211.044 62.9611 212.084 62.4331 213.076 61.7931C214.068 61.1211 214.98 60.3691 215.812 59.5371C216.676 58.6731 217.38 57.8091 217.924 56.9451C218.244 56.4651 218.532 55.9691 218.788 55.4571C219.044 54.9451 219.3 54.4331 219.556 53.9211L220.468 54.1611Z" fill="black"/>
<path d="M227.235 51.1851C227.235 50.3211 227.011 49.6171 226.563 49.0731C226.147 48.4971 225.459 48.2091 224.499 48.2091C223.987 48.2091 223.523 48.3691 223.107 48.6891C222.691 49.0091 222.339 49.4411 222.051 49.9851C221.763 50.4971 221.539 51.1051 221.379 51.8091C221.219 52.5131 221.139 53.2491 221.139 54.0171C221.139 55.2331 221.267 56.3211 221.523 57.2811C221.811 58.2091 222.211 59.0251 222.723 59.7291C223.395 59.1851 224.003 58.5611 224.547 57.8571C225.091 57.1531 225.555 56.4171 225.939 55.6491C226.355 54.8811 226.675 54.1131 226.899 53.3451C227.123 52.5771 227.235 51.8571 227.235 51.1851ZM239.379 54.1611C239.155 54.6411 238.915 55.1371 238.659 55.6491C238.435 56.1291 238.147 56.6091 237.795 57.0891C236.227 59.3291 234.435 61.0251 232.419 62.1771C230.435 63.2971 228.531 63.8571 226.707 63.8571C225.683 63.8571 224.723 63.6811 223.827 63.3291C222.963 62.9771 222.211 62.4491 221.571 61.7451C220.931 61.0411 220.419 60.1611 220.035 59.1051C219.651 58.0491 219.459 56.8011 219.459 55.3611C219.459 54.4011 219.603 53.4411 219.891 52.4811C220.179 51.5211 220.563 50.6571 221.043 49.8891C221.555 49.1211 222.131 48.4971 222.771 48.0171C223.443 47.5371 224.147 47.2971 224.883 47.2971C226.067 47.2971 226.931 47.6491 227.475 48.3531C228.019 49.0251 228.291 49.8891 228.291 50.9451C228.291 52.3851 227.843 53.9531 226.947 55.6491C226.083 57.3131 224.835 58.8651 223.203 60.3051C224.419 61.6811 225.987 62.3691 227.907 62.3691C229.347 62.3691 230.851 61.9371 232.419 61.0731C233.987 60.1771 235.459 58.8011 236.835 56.9451C237.187 56.4971 237.475 56.0171 237.699 55.5051C237.955 54.9611 238.211 54.4331 238.467 53.9211L239.379 54.1611Z" fill="black"/>
</svg>
